<svg width="36" height="37" viewBox="0 0 36 37" fill="none" xmlns="http://www.w3.org/2000/svg">
<path d="M13.5 24.135H4.5V5.01001H24.75V14.01H27V5.01001C27 4.41327 26.7629 3.84098 26.341 3.41902C25.919 2.99706 25.3467 2.76001 24.75 2.76001H4.5C3.90326 2.76001 3.33097 2.99706 2.90901 3.41902C2.48705 3.84098 2.25 4.41327 2.25 5.01001V24.135C2.25 24.7317 2.48705 25.304 2.90901 25.726C3.33097 26.148 3.90326 26.385 4.5 26.385H13.5V24.135Z" fill="#E57A7A"/>
<line x1="9" y1="8.01001" x2="21" y2="8.01001" stroke="#E57A7A"/>
<line x1="9" y1="11.01" x2="21" y2="11.01" stroke="#E57A7A"/>
<line x1="9" y1="14.01" x2="21" y2="14.01" stroke="#E57A7A"/>
<line x1="9" y1="17.01" x2="21" y2="17.01" stroke="#E57A7A"/>
<line x1="9" y1="20.01" x2="21" y2="20.01" stroke="#E57A7A"/>
<path d="M33.75 32.6625L30.2512 29.1638C31.2306 27.7839 31.6561 26.0865 31.4432 24.4079C31.2304 22.7292 30.3949 21.1917 29.1022 20.0999C27.8094 19.0081 26.1538 18.4417 24.4632 18.5128C22.7726 18.5839 21.1704 19.2874 19.9739 20.4839C18.7774 21.6804 18.0739 23.2826 18.0028 24.9732C17.9317 26.6638 18.4981 28.3194 19.5899 29.6122C20.6817 30.9049 22.2192 31.7404 23.8979 31.9532C25.5765 32.1661 27.2739 31.7406 28.6537 30.7613L32.1525 34.26L33.75 32.6625ZM24.75 29.76C23.86 29.76 22.9899 29.4961 22.2499 29.0016C21.5099 28.5072 20.9331 27.8043 20.5925 26.9821C20.2519 26.1598 20.1628 25.255 20.3365 24.3821C20.5101 23.5092 20.9387 22.7074 21.568 22.078C22.1974 21.4487 22.9992 21.0201 23.8721 20.8465C24.745 20.6728 25.6498 20.762 26.4721 21.1025C27.2943 21.4431 27.9971 22.0199 28.4916 22.7599C28.9861 23.5 29.25 24.37 29.25 25.26C29.25 26.4535 28.7759 27.5981 27.932 28.442C27.0881 29.2859 25.9435 29.76 24.75 29.76Z" fill="#E57A7A"/>
</svg>
