<svg width="24" height="24" viewBox="0 0 24 24" fill="none" xmlns="http://www.w3.org/2000/svg">
<path fill-rule="evenodd" clip-rule="evenodd" d="M16.456 7.45505C16.6659 7.24696 16.9493 7.12985 17.2449 7.12903C17.5405 7.12822 17.8245 7.24377 18.0356 7.4507C18.2466 7.65763 18.3678 7.93931 18.3728 8.23486C18.3778 8.5304 18.2664 8.81605 18.0625 9.03005L12.0745 16.5151C11.9716 16.6259 11.8473 16.7149 11.7093 16.7766C11.5712 16.8384 11.4221 16.8716 11.2708 16.8744C11.1196 16.8772 10.9694 16.8495 10.8291 16.7929C10.6888 16.7363 10.5614 16.652 10.4545 16.5451L6.48697 12.5761C6.37644 12.4731 6.28779 12.3489 6.2263 12.2109C6.16481 12.0729 6.13175 11.9239 6.12908 11.7728C6.12642 11.6218 6.1542 11.4717 6.21078 11.3317C6.26737 11.1916 6.35158 11.0643 6.45841 10.9575C6.56524 10.8507 6.69249 10.7665 6.83257 10.7099C6.97265 10.6533 7.1227 10.6255 7.27375 10.6282C7.42481 10.6308 7.57378 10.6639 7.71178 10.7254C7.84978 10.7869 7.97398 10.8755 8.07697 10.9861L11.218 14.1256L16.4275 7.48805C16.4368 7.47643 16.4468 7.46541 16.4575 7.45505H16.456Z" fill="#E57A7A"/>
</svg>
