<svg width="13" height="13" viewBox="0 0 13 13" fill="none" xmlns="http://www.w3.org/2000/svg">
<path d="M3.375 5.875H4.625V7.125H3.375V5.875ZM12.125 2.75V11.5C12.125 12.1875 11.5625 12.75 10.875 12.75H2.125C1.79348 12.75 1.47554 12.6183 1.24112 12.3839C1.0067 12.1495 0.875 11.8315 0.875 11.5L0.88125 2.75C0.88125 2.0625 1.43125 1.5 2.125 1.5H2.75V0.25H4V1.5H9V0.25H10.25V1.5H10.875C11.5625 1.5 12.125 2.0625 12.125 2.75ZM2.125 4H10.875V2.75H2.125V4ZM10.875 11.5V5.25H2.125V11.5H10.875ZM8.375 7.125H9.625V5.875H8.375V7.125ZM5.875 7.125H7.125V5.875H5.875V7.125Z" fill="#8C8C8C"/>
</svg>
