<svg width="24" height="24" viewBox="0 0 24 24" fill="none" xmlns="http://www.w3.org/2000/svg">
<path d="M5.46582 17.4694L11.4636 11.4717L12.5248 12.5322L6.52632 18.5299L5.46582 17.4694Z" fill="#E57A7A"/>
<path d="M12.7504 22.5C12.6554 22.5003 12.5612 22.4825 12.4729 22.4475C12.35 22.3986 12.2423 22.318 12.1606 22.2139C12.0789 22.1098 12.0262 21.986 12.0079 21.855L11.2579 16.605L12.7579 16.395L13.3204 20.3475L15.7504 18.39V12.75C15.7498 12.6513 15.7687 12.5535 15.806 12.4621C15.8433 12.3707 15.8983 12.2876 15.9679 12.2175L19.0204 9.16505C19.6493 8.54034 20.1482 7.7971 20.488 6.97833C20.8279 6.15957 21.002 5.28154 21.0004 4.39505V3.00005H19.6054C18.7189 2.99836 17.8408 3.17249 17.0221 3.51235C16.2033 3.85222 15.4601 4.35107 14.8354 4.98005L11.7829 8.03255C11.7128 8.10206 11.6297 8.15705 11.5383 8.19438C11.4469 8.2317 11.3491 8.25062 11.2504 8.25005H5.61035L3.65285 10.695L7.60535 11.2575L7.39535 12.7575L2.14535 12.0075C2.01436 11.9892 1.89056 11.9365 1.7865 11.8548C1.68244 11.7732 1.60184 11.6654 1.55285 11.5425C1.50326 11.4188 1.48755 11.2841 1.50732 11.1523C1.5271 11.0205 1.58164 10.8963 1.66535 10.7925L4.66535 7.04255C4.73444 6.95278 4.82297 6.87983 4.92429 6.82917C5.02561 6.77851 5.13709 6.75146 5.25035 6.75005H10.9429L13.7704 3.91505C14.5347 3.14638 15.4441 2.5371 16.4457 2.12254C17.4474 1.70798 18.5213 1.49639 19.6054 1.50005H21.0004C21.3982 1.50005 21.7797 1.65808 22.061 1.93939C22.3423 2.22069 22.5004 2.60222 22.5004 3.00005V4.39505C22.504 5.47907 22.2924 6.55304 21.8779 7.55467C21.4633 8.5563 20.854 9.46567 20.0854 10.23L17.2504 13.0575V18.75C17.2498 18.8627 17.2239 18.9738 17.1746 19.0751C17.1253 19.1763 17.0537 19.2652 16.9654 19.335L13.2154 22.335C13.0834 22.4409 12.9195 22.4991 12.7504 22.5Z" fill="#E57A7A"/>
</svg>
