<svg width="15" height="15" viewBox="0 0 15 15" fill="none" xmlns="http://www.w3.org/2000/svg">
<path fill-rule="evenodd" clip-rule="evenodd" d="M15 7.5C15 9.48912 14.2098 11.3968 12.8033 12.8033C11.3968 14.2098 9.48912 15 7.5 15C5.51088 15 3.60322 14.2098 2.1967 12.8033C0.790176 11.3968 0 9.48912 0 7.5C0 5.51088 0.790176 3.60322 2.1967 2.1967C3.60322 0.790176 5.51088 0 7.5 0C9.48912 0 11.3968 0.790176 12.8033 2.1967C14.2098 3.60322 15 5.51088 15 7.5V7.5ZM6.15938 5.65594H4.92188C4.89375 3.88781 6.2625 3.28125 7.50562 3.28125C8.81531 3.28125 10.0116 3.96562 10.0116 5.38125C10.0116 6.39375 9.41625 6.87562 8.84531 7.30969C8.15438 7.83375 7.89844 8.02969 7.89844 8.70281V9.03562H6.67219L6.66563 8.60156C6.63 7.7325 7.12969 7.19719 7.76062 6.73875C8.31375 6.3225 8.66531 6.04875 8.66531 5.45344C8.66531 4.68 8.07656 4.35844 7.43344 4.35844C6.58875 4.35844 6.16031 4.92375 6.16031 5.65594H6.15938ZM7.33219 11.6962C6.78469 11.6962 6.38625 11.3269 6.38625 10.8272C6.38625 10.3097 6.78469 9.94594 7.33313 9.94594C7.90406 9.94594 8.29688 10.3097 8.29688 10.8272C8.29688 11.3269 7.90313 11.6962 7.33219 11.6962Z" fill="#424141"/>
</svg>
