<svg width="36" height="37" viewBox="0 0 36 37" fill="none" xmlns="http://www.w3.org/2000/svg">
<path d="M6.75 3.88501V33.135H24.75V30.885H9V6.13501H20.25V12.885H27V15.135H29.25V11.31L28.9125 10.9725L22.1625 4.22251L21.825 3.88501H6.75ZM22.5 7.71001L25.425 10.635H22.5V7.71001ZM11.25 15.135V17.385H24.75V15.135H11.25ZM30.375 17.385V19.635C28.4625 19.9725 27 21.5475 27 23.5725C27 25.8225 28.6875 27.51 30.9375 27.51H32.0625C32.9625 27.51 33.75 28.2975 33.75 29.1975C33.75 30.0975 32.9625 30.885 32.0625 30.885H28.125V33.135H30.375V35.385H32.625V33.135C34.5375 32.7975 36 31.2225 36 29.1975C36 26.9475 34.3125 25.26 32.0625 25.26H30.9375C30.0375 25.26 29.25 24.4725 29.25 23.5725C29.25 22.6725 30.0375 21.885 30.9375 21.885H34.875V19.635H32.625V17.385H30.375ZM11.25 20.76V23.01H19.125V20.76H11.25ZM21.375 20.76V23.01H24.75V20.76H21.375ZM11.25 25.26V27.51H19.125V25.26H11.25ZM21.375 25.26V27.51H24.75V25.26H21.375Z" fill="#E57A7A"/>
</svg>
