<svg width="36" height="37" viewBox="0 0 36 37" fill="none" xmlns="http://www.w3.org/2000/svg">
<path d="M9.79995 19.31H26.2V22.39H27.7999V17.71H18.8V14.51H17.2V17.71H8.19995V22.39H9.79995V19.31Z" fill="#E57A7A"/>
<path d="M14 23.51H4C3.46957 23.51 2.96086 23.7207 2.58579 24.0958C2.21071 24.4709 2 24.9796 2 25.51V31.51C2 32.0404 2.21071 32.5492 2.58579 32.9242C2.96086 33.2993 3.46957 33.51 4 33.51H14C14.5304 33.51 15.0391 33.2993 15.4142 32.9242C15.7893 32.5492 16 32.0404 16 31.51V25.51C16 24.9796 15.7893 24.4709 15.4142 24.0958C15.0391 23.7207 14.5304 23.51 14 23.51ZM4 31.51V25.51H14V31.51H4Z" fill="#E57A7A"/>
<path d="M32 23.51H22C21.4696 23.51 20.9609 23.7207 20.5858 24.0958C20.2107 24.4709 20 24.9796 20 25.51V31.51C20 32.0404 20.2107 32.5492 20.5858 32.9242C20.9609 33.2993 21.4696 33.51 22 33.51H32C32.5304 33.51 33.0391 33.2993 33.4142 32.9242C33.7893 32.5492 34 32.0404 34 31.51V25.51C34 24.9796 33.7893 24.4709 33.4142 24.0958C33.0391 23.7207 32.5304 23.51 32 23.51ZM22 31.51V25.51H32V31.51H22Z" fill="#E57A7A"/>
<path d="M13 13.51H23C23.5304 13.51 24.0391 13.2993 24.4142 12.9242C24.7893 12.5492 25 12.0404 25 11.51V5.51001C25 4.97958 24.7893 4.47087 24.4142 4.0958C24.0391 3.72072 23.5304 3.51001 23 3.51001H13C12.4696 3.51001 11.9609 3.72072 11.5858 4.0958C11.2107 4.47087 11 4.97958 11 5.51001V11.51C11 12.0404 11.2107 12.5492 11.5858 12.9242C11.9609 13.2993 12.4696 13.51 13 13.51ZM13 5.51001H23V11.51H13V5.51001Z" fill="#E57A7A"/>
</svg>
