<svg width="140" height="141" viewBox="0 0 140 141" fill="none" xmlns="http://www.w3.org/2000/svg">
<g filter="url(#filter0_d)">
<circle cx="70" cy="67.51" r="35" fill="white"/>
</g>
<path d="M70 66.51C71.3845 66.51 72.7378 66.0995 73.889 65.3303C75.0401 64.5611 75.9373 63.4679 76.4672 62.1888C76.997 60.9097 77.1356 59.5022 76.8655 58.1444C76.5954 56.7865 75.9287 55.5392 74.9497 54.5603C73.9708 53.5813 72.7235 52.9146 71.3656 52.6445C70.0078 52.3744 68.6003 52.513 67.3212 53.0429C66.0421 53.5727 64.9489 54.4699 64.1797 55.621C63.4105 56.7722 63 58.1255 63 59.51C63 61.3665 63.7375 63.147 65.0503 64.4598C66.363 65.7725 68.1435 66.51 70 66.51ZM70 54.51C70.9889 54.51 71.9556 54.8033 72.7779 55.3527C73.6001 55.9021 74.241 56.683 74.6194 57.5966C74.9978 58.5102 75.0969 59.5156 74.9039 60.4855C74.711 61.4554 74.2348 62.3463 73.5355 63.0455C72.8363 63.7448 71.9454 64.221 70.9755 64.4139C70.0055 64.6069 69.0002 64.5079 68.0866 64.1294C67.173 63.751 66.3921 63.1101 65.8427 62.2879C65.2932 61.4656 65 60.4989 65 59.51C65 58.1839 65.5268 56.9122 66.4645 55.9745C67.4021 55.0368 68.6739 54.51 70 54.51Z" fill="#E57A7A"/>
<path d="M82.47 73.8801C80.8663 72.1851 78.9338 70.835 76.7905 69.9123C74.6473 68.9896 72.3384 68.5137 70.005 68.5137C67.6716 68.5137 65.3627 68.9896 63.2195 69.9123C61.0762 70.835 59.1437 72.1851 57.54 73.8801C57.1923 74.2514 56.9992 74.7413 57 75.2501V80.5101C57 81.0405 57.2107 81.5492 57.5858 81.9243C57.9609 82.2993 58.4696 82.5101 59 82.5101H81C81.5304 82.5101 82.0391 82.2993 82.4142 81.9243C82.7893 81.5492 83 81.0405 83 80.5101V75.2501C83.0035 74.7427 82.814 74.253 82.47 73.8801ZM81 80.5101H59V75.2401C60.4172 73.7477 62.1233 72.5594 64.0144 71.7473C65.9054 70.9353 67.942 70.5165 70 70.5165C72.0581 70.5165 74.0946 70.9353 75.9856 71.7473C77.8767 72.5594 79.5828 73.7477 81 75.2401V80.5101Z" fill="#E57A7A"/>
<defs>
<filter id="filter0_d" x="0" y="0.51001" width="140" height="140" filterUnits="userSpaceOnUse" color-interpolation-filters="sRGB">
<feFlood flood-opacity="0" result="BackgroundImageFix"/>
<feColorMatrix in="SourceAlpha" type="matrix" values="0 0 0 0 0 0 0 0 0 0 0 0 0 0 0 0 0 0 127 0"/>
<feOffset dy="3"/>
<feGaussianBlur stdDeviation="17.5"/>
<feColorMatrix type="matrix" values="0 0 0 0 0 0 0 0 0 0 0 0 0 0 0 0 0 0 0.1 0"/>
<feBlend mode="normal" in2="BackgroundImageFix" result="effect1_dropShadow"/>
<feBlend mode="normal" in="SourceGraphic" in2="effect1_dropShadow" result="shape"/>
</filter>
</defs>
</svg>
