<svg width="36" height="37" viewBox="0 0 36 37" fill="none" xmlns="http://www.w3.org/2000/svg">
<g clip-path="url(#clip0)">
<path d="M20.3906 36.51H15.6094C14.834 36.51 14.2031 35.8791 14.2031 35.1038V33.0045C12.8801 32.6588 11.6175 32.1353 10.437 31.4428L8.95139 32.9285C8.40289 33.4767 7.5108 33.4767 6.96259 32.9285L3.58154 29.5474C3.03333 28.9992 3.03333 28.1071 3.58154 27.5589L5.06717 26.073C4.37476 24.8925 3.85126 23.6299 3.50546 22.3069H1.40625C0.63089 22.3069 0 21.676 0 20.9006V16.1194C0 15.344 0.63089 14.7131 1.40625 14.7131H3.50079C3.84549 13.3879 4.36844 12.1231 5.06085 10.9404L3.58154 9.46112C3.03333 8.9129 3.03333 8.02081 3.58154 7.4726L6.96259 4.09155C7.5108 3.54333 8.40289 3.54333 8.95139 4.09155L10.4255 5.56592C11.6093 4.87021 12.8757 4.34451 14.2031 3.99762V1.91626C14.2031 1.1409 14.834 0.51001 15.6094 0.51001H20.3906C21.166 0.51001 21.7969 1.1409 21.7969 1.91626V3.99295C23.1262 4.33875 24.3951 4.86389 25.5808 5.55933L27.0489 4.09155C27.5971 3.54333 28.4892 3.54333 29.0374 4.09155L32.4185 7.4726C32.9667 8.02081 32.9667 8.9129 32.4185 9.4614L30.9507 10.9292C31.6461 12.1149 32.1713 13.3838 32.5171 14.7131H34.5938C35.3691 14.7131 36 15.344 36 16.1194V20.9006C36 21.676 35.3691 22.3069 34.5938 22.3069H32.5124C32.1655 23.6343 31.6395 24.9008 30.9441 26.0845L32.4182 27.5589C32.9664 28.1071 32.9664 28.9992 32.4182 29.5474L29.0374 32.9285C28.4892 33.4767 27.5971 33.4767 27.0486 32.9285L25.5696 31.4492C24.3866 32.1416 23.1218 32.6645 21.7969 33.0092V35.1038C21.7969 35.8791 21.166 36.51 20.3906 36.51ZM10.3315 29.8506C10.4623 29.8506 10.5933 29.8869 10.7097 29.9611C12.0476 30.8152 13.5107 31.422 15.0581 31.7645C15.3803 31.8359 15.6094 32.1212 15.6094 32.4511V35.1038H20.3906V32.455C20.3906 32.1248 20.6202 31.8392 20.9427 31.7683C22.4923 31.4272 23.9576 30.8213 25.2977 29.9677C25.5756 29.7905 25.9395 29.8303 26.1727 30.0635L28.0432 31.9339L31.4239 28.5532L29.5576 26.6869C29.3242 26.4534 29.2846 26.0889 29.4626 25.8107C30.3198 24.4704 30.929 23.0037 31.2726 21.4519C31.3437 21.1297 31.6294 20.9006 31.959 20.9006H34.5938V16.1194H31.9628C31.6327 16.1194 31.347 15.8898 31.2762 15.5673C30.9342 14.0133 30.3261 12.5444 29.4689 11.2019C29.2915 10.9237 29.3313 10.5598 29.5645 10.3263L31.4239 8.46686L28.0432 5.08609L26.1837 6.94553C25.9505 7.17871 25.5863 7.21854 25.3081 7.04111C23.9656 6.1839 22.4967 5.57608 20.9427 5.23386C20.6202 5.16299 20.3906 4.87735 20.3906 4.54721V1.91626H15.6094V4.55106C15.6094 4.88092 15.3803 5.16629 15.0584 5.2377C13.5063 5.5813 12.0396 6.19022 10.6993 7.04742C10.4214 7.2254 10.0566 7.18585 9.82343 6.95239L7.95685 5.08609L4.57608 8.46686L6.4465 10.3376C6.67969 10.5705 6.71951 10.9344 6.54236 11.2123C5.68872 12.5524 5.08282 14.0177 4.7417 15.5673C4.67084 15.8898 4.38519 16.1194 4.05505 16.1194H1.40625V20.9006H4.0589C4.38876 20.9006 4.67413 21.13 4.74554 21.4519C5.08804 22.9996 5.69504 24.4624 6.54895 25.8003C6.72638 26.0785 6.68683 26.4427 6.45337 26.6759L4.57608 28.5532L7.95685 31.9342L9.83414 30.0566C9.97009 29.921 10.15 29.8506 10.3315 29.8506Z" fill="#E57A7A"/>
<path d="M17.9999 28.7709C15.3711 28.7709 12.7424 27.77 10.741 25.7688C6.73837 21.7662 6.73837 15.2536 10.741 11.251C12.3554 9.63679 14.4024 8.62715 16.6607 8.33161C18.8472 8.04542 21.1046 8.47883 23.0179 9.55165C23.3566 9.74143 23.4771 10.1699 23.2873 10.5086C23.0973 10.8475 22.6688 10.9681 22.3302 10.778C18.887 8.84715 14.5301 9.45057 11.7355 12.2455C8.28112 15.6996 8.28112 21.3202 11.7355 24.7746C13.4625 26.5014 15.7315 27.3649 17.9999 27.3652C20.2689 27.3654 22.5373 26.5019 24.2646 24.7746C26.9653 22.0739 27.6341 17.9653 25.9285 14.551C25.7549 14.2035 25.8958 13.7811 26.2432 13.6075C26.5904 13.4339 27.0128 13.5751 27.1864 13.9226C29.1628 17.8787 28.3883 22.6397 25.2588 25.7688C23.2574 27.77 20.6287 28.7709 17.9999 28.7709Z" fill="#E57A7A"/>
<path d="M24.9153 12.6047C24.7296 12.6047 24.5489 12.53 24.4173 12.3985C24.2866 12.2677 24.2122 12.087 24.2122 11.9016C24.2122 11.7165 24.2866 11.5352 24.4173 11.4045C24.5481 11.2735 24.7296 11.1985 24.9153 11.1985C25.1001 11.1985 25.2814 11.2735 25.4124 11.4045C25.5432 11.5352 25.6184 11.7165 25.6184 11.9016C25.6184 12.087 25.5432 12.2677 25.4124 12.3985C25.2809 12.53 25.1001 12.6047 24.9153 12.6047Z" fill="#E57A7A"/>
<path d="M17.0077 23.6896C16.8212 23.6896 16.6424 23.6155 16.5106 23.4836L12.0641 19.0369C11.7895 18.7625 11.7895 18.3173 12.0641 18.0427L14.5861 15.5205C14.7179 15.3886 14.8967 15.3148 15.0832 15.3148C15.2697 15.3148 15.4488 15.3886 15.5806 15.5205L17.0077 16.9479L20.4198 13.5361C20.6942 13.2614 21.1394 13.2614 21.4141 13.5361L23.9362 16.0583C24.2106 16.3326 24.2106 16.7779 23.9362 17.0525L17.5051 23.4836C17.373 23.6155 17.1942 23.6896 17.0077 23.6896ZM13.5555 18.5398L17.0077 21.992L22.4446 16.5554L20.9169 15.0277L17.5051 18.4395C17.3733 18.5714 17.1942 18.6455 17.0077 18.6455C16.8212 18.6455 16.6424 18.5714 16.5106 18.4395L15.0832 17.0121L13.5555 18.5398Z" fill="#E57A7A"/>
</g>
<defs>
<clipPath id="clip0">
<rect width="36" height="36" fill="white" transform="translate(0 0.51001)"/>
</clipPath>
</defs>
</svg>
