<svg width="140" height="141" viewBox="0 0 140 141" fill="none" xmlns="http://www.w3.org/2000/svg">
<g filter="url(#filter0_d)">
<circle cx="70" cy="67.51" r="35" fill="white"/>
</g>
<path d="M58.75 52.885V82.135H76.75V79.885H61V55.135H72.25V61.885H79V64.135H81.25V60.31L80.9125 59.9725L74.1625 53.2225L73.825 52.885H58.75ZM74.5 56.71L77.425 59.635H74.5V56.71ZM63.25 64.135V66.385H76.75V64.135H63.25ZM82.375 66.385V68.635C80.4625 68.9725 79 70.5475 79 72.5725C79 74.8225 80.6875 76.51 82.9375 76.51H84.0625C84.9625 76.51 85.75 77.2975 85.75 78.1975C85.75 79.0975 84.9625 79.885 84.0625 79.885H80.125V82.135H82.375V84.385H84.625V82.135C86.5375 81.7975 88 80.2225 88 78.1975C88 75.9475 86.3125 74.26 84.0625 74.26H82.9375C82.0375 74.26 81.25 73.4725 81.25 72.5725C81.25 71.6725 82.0375 70.885 82.9375 70.885H86.875V68.635H84.625V66.385H82.375ZM63.25 69.76V72.01H71.125V69.76H63.25ZM73.375 69.76V72.01H76.75V69.76H73.375ZM63.25 74.26V76.51H71.125V74.26H63.25ZM73.375 74.26V76.51H76.75V74.26H73.375Z" fill="#E57A7A"/>
<defs>
<filter id="filter0_d" x="0" y="0.51001" width="140" height="140" filterUnits="userSpaceOnUse" color-interpolation-filters="sRGB">
<feFlood flood-opacity="0" result="BackgroundImageFix"/>
<feColorMatrix in="SourceAlpha" type="matrix" values="0 0 0 0 0 0 0 0 0 0 0 0 0 0 0 0 0 0 127 0"/>
<feOffset dy="3"/>
<feGaussianBlur stdDeviation="17.5"/>
<feColorMatrix type="matrix" values="0 0 0 0 0 0 0 0 0 0 0 0 0 0 0 0 0 0 0.1 0"/>
<feBlend mode="normal" in2="BackgroundImageFix" result="effect1_dropShadow"/>
<feBlend mode="normal" in="SourceGraphic" in2="effect1_dropShadow" result="shape"/>
</filter>
</defs>
</svg>
