<svg width="140" height="140" viewBox="0 0 140 140" fill="none" xmlns="http://www.w3.org/2000/svg">
<g filter="url(#filter0_d)">
<circle cx="70" cy="67" r="35" fill="white"/>
</g>
<path d="M70 66C71.3845 66 72.7378 65.5895 73.889 64.8203C75.0401 64.0511 75.9373 62.9579 76.4672 61.6788C76.997 60.3997 77.1356 58.9922 76.8655 57.6344C76.5954 56.2765 75.9287 55.0292 74.9497 54.0503C73.9708 53.0713 72.7235 52.4046 71.3656 52.1345C70.0078 51.8644 68.6003 52.003 67.3212 52.5328C66.0421 53.0627 64.9489 53.9599 64.1797 55.111C63.4105 56.2622 63 57.6155 63 59C63 60.8565 63.7375 62.637 65.0503 63.9498C66.363 65.2625 68.1435 66 70 66ZM70 54C70.9889 54 71.9556 54.2932 72.7779 54.8427C73.6001 55.3921 74.241 56.173 74.6194 57.0866C74.9978 58.0002 75.0969 59.0056 74.9039 59.9755C74.711 60.9454 74.2348 61.8363 73.5355 62.5355C72.8363 63.2348 71.9454 63.711 70.9755 63.9039C70.0055 64.0969 69.0002 63.9978 68.0866 63.6194C67.173 63.241 66.3921 62.6001 65.8427 61.7779C65.2932 60.9556 65 59.9889 65 59C65 57.6739 65.5268 56.4022 66.4645 55.4645C67.4021 54.5268 68.6739 54 70 54Z" fill="#E57A7A"/>
<path d="M82.47 73.37C80.8663 71.6751 78.9338 70.3249 76.7905 69.4023C74.6473 68.4796 72.3384 68.0037 70.005 68.0037C67.6716 68.0037 65.3627 68.4796 63.2195 69.4023C61.0762 70.3249 59.1437 71.6751 57.54 73.37C57.1923 73.7414 56.9992 74.2313 57 74.74V80C57 80.5305 57.2107 81.0392 57.5858 81.4143C57.9609 81.7893 58.4696 82 59 82H81C81.5304 82 82.0391 81.7893 82.4142 81.4143C82.7893 81.0392 83 80.5305 83 80V74.74C83.0035 74.2327 82.814 73.743 82.47 73.37ZM81 80H59V74.73C60.4172 73.2377 62.1233 72.0494 64.0144 71.2373C65.9054 70.4253 67.942 70.0065 70 70.0065C72.0581 70.0065 74.0946 70.4253 75.9856 71.2373C77.8767 72.0494 79.5828 73.2377 81 74.73V80Z" fill="#E57A7A"/>
<defs>
<filter id="filter0_d" x="0" y="0" width="140" height="140" filterUnits="userSpaceOnUse" color-interpolation-filters="sRGB">
<feFlood flood-opacity="0" result="BackgroundImageFix"/>
<feColorMatrix in="SourceAlpha" type="matrix" values="0 0 0 0 0 0 0 0 0 0 0 0 0 0 0 0 0 0 127 0"/>
<feOffset dy="3"/>
<feGaussianBlur stdDeviation="17.5"/>
<feColorMatrix type="matrix" values="0 0 0 0 0 0 0 0 0 0 0 0 0 0 0 0 0 0 0.1 0"/>
<feBlend mode="normal" in2="BackgroundImageFix" result="effect1_dropShadow"/>
<feBlend mode="normal" in="SourceGraphic" in2="effect1_dropShadow" result="shape"/>
</filter>
</defs>
</svg>
