<svg width="140" height="140" viewBox="0 0 140 140" fill="none" xmlns="http://www.w3.org/2000/svg">
<g filter="url(#filter0_d)">
<circle cx="70" cy="67" r="35" fill="white"/>
</g>
<path d="M58.75 52.375V81.625H76.75V79.375H61V54.625H72.25V61.375H79V63.625H81.25V59.8L80.9125 59.4625L74.1625 52.7125L73.825 52.375H58.75ZM74.5 56.2L77.425 59.125H74.5V56.2ZM63.25 63.625V65.875H76.75V63.625H63.25ZM82.375 65.875V68.125C80.4625 68.4625 79 70.0375 79 72.0625C79 74.3125 80.6875 76 82.9375 76H84.0625C84.9625 76 85.75 76.7875 85.75 77.6875C85.75 78.5875 84.9625 79.375 84.0625 79.375H80.125V81.625H82.375V83.875H84.625V81.625C86.5375 81.2875 88 79.7125 88 77.6875C88 75.4375 86.3125 73.75 84.0625 73.75H82.9375C82.0375 73.75 81.25 72.9625 81.25 72.0625C81.25 71.1625 82.0375 70.375 82.9375 70.375H86.875V68.125H84.625V65.875H82.375ZM63.25 69.25V71.5H71.125V69.25H63.25ZM73.375 69.25V71.5H76.75V69.25H73.375ZM63.25 73.75V76H71.125V73.75H63.25ZM73.375 73.75V76H76.75V73.75H73.375Z" fill="#E57A7A"/>
<defs>
<filter id="filter0_d" x="0" y="0" width="140" height="140" filterUnits="userSpaceOnUse" color-interpolation-filters="sRGB">
<feFlood flood-opacity="0" result="BackgroundImageFix"/>
<feColorMatrix in="SourceAlpha" type="matrix" values="0 0 0 0 0 0 0 0 0 0 0 0 0 0 0 0 0 0 127 0"/>
<feOffset dy="3"/>
<feGaussianBlur stdDeviation="17.5"/>
<feColorMatrix type="matrix" values="0 0 0 0 0 0 0 0 0 0 0 0 0 0 0 0 0 0 0.1 0"/>
<feBlend mode="normal" in2="BackgroundImageFix" result="effect1_dropShadow"/>
<feBlend mode="normal" in="SourceGraphic" in2="effect1_dropShadow" result="shape"/>
</filter>
</defs>
</svg>
