<svg width="140" height="140" viewBox="0 0 140 140" fill="none" xmlns="http://www.w3.org/2000/svg">
<g filter="url(#filter0_d)">
<circle cx="70" cy="67" r="35" fill="white"/>
</g>
<path d="M72.3906 85H67.6094C66.834 85 66.2031 84.3691 66.2031 83.5938V81.4945C64.8801 81.1487 63.6175 80.6252 62.437 79.9328L60.9514 81.4185C60.4029 81.9667 59.5108 81.9667 58.9626 81.4185L55.5815 78.0374C55.0333 77.4892 55.0333 76.5971 55.5815 76.0489L57.0672 74.563C56.3748 73.3825 55.8513 72.1199 55.5055 70.7969H53.4062C52.6309 70.7969 52 70.166 52 69.3906V64.6094C52 63.834 52.6309 63.2031 53.4062 63.2031H55.5008C55.8455 61.8779 56.3684 60.6131 57.0609 59.4304L55.5815 57.9511C55.0333 57.4029 55.0333 56.5108 55.5815 55.9626L58.9626 52.5815C59.5108 52.0333 60.4029 52.0333 60.9514 52.5815L62.4255 54.0559C63.6093 53.3602 64.8757 52.8345 66.2031 52.4876V50.4062C66.2031 49.6309 66.834 49 67.6094 49H72.3906C73.166 49 73.7969 49.6309 73.7969 50.4062V52.4829C75.1262 52.8287 76.3951 53.3539 77.5808 54.0493L79.0489 52.5815C79.5971 52.0333 80.4892 52.0333 81.0374 52.5815L84.4185 55.9626C84.9667 56.5108 84.9667 57.4029 84.4185 57.9514L82.9507 59.4192C83.6461 60.6049 84.1713 61.8738 84.5171 63.2031H86.5938C87.3691 63.2031 88 63.834 88 64.6094V69.3906C88 70.166 87.3691 70.7969 86.5938 70.7969H84.5124C84.1655 72.1243 83.6395 73.3907 82.9441 74.5745L84.4182 76.0489C84.9664 76.5971 84.9664 77.4892 84.4182 78.0374L81.0374 81.4185C80.4892 81.9667 79.5971 81.9667 79.0486 81.4185L77.5696 79.9391C76.3866 80.6316 75.1218 81.1545 73.7969 81.4992V83.5938C73.7969 84.3691 73.166 85 72.3906 85ZM62.3315 78.3406C62.4623 78.3406 62.5933 78.3769 62.7097 78.451C64.0476 79.3052 65.5107 79.912 67.0581 80.2545C67.3803 80.3259 67.6094 80.6112 67.6094 80.9411V83.5938H72.3906V80.9449C72.3906 80.6148 72.6202 80.3292 72.9427 80.2583C74.4923 79.9172 75.9576 79.3113 77.2977 78.4576C77.5756 78.2805 77.9395 78.3203 78.1727 78.5535L80.0432 80.4239L83.4239 77.0432L81.5576 75.1768C81.3242 74.9434 81.2846 74.5789 81.4626 74.3007C82.3198 72.9604 82.929 71.4937 83.2726 69.9419C83.3437 69.6197 83.6294 69.3906 83.959 69.3906H86.5938V64.6094H83.9628C83.6327 64.6094 83.347 64.3798 83.2762 64.0573C82.9342 62.5033 82.3261 61.0344 81.4689 59.6919C81.2915 59.4137 81.3313 59.0497 81.5645 58.8163L83.4239 56.9568L80.0432 53.5761L78.1837 55.4355C77.9505 55.6687 77.5863 55.7085 77.3081 55.5311C75.9656 54.6739 74.4967 54.0661 72.9427 53.7238C72.6202 53.653 72.3906 53.3673 72.3906 53.0372V50.4062H67.6094V53.041C67.6094 53.3709 67.3803 53.6563 67.0584 53.7277C65.5063 54.0713 64.0396 54.6802 62.6993 55.5374C62.4214 55.7154 62.0566 55.6758 61.8234 55.4424L59.9568 53.5761L56.5761 56.9568L58.4465 58.8275C58.6797 59.0605 58.7195 59.4244 58.5424 59.7023C57.6887 61.0424 57.0828 62.5077 56.7417 64.0573C56.6708 64.3798 56.3852 64.6094 56.0551 64.6094H53.4062V69.3906H56.0589C56.3888 69.3906 56.6741 69.62 56.7455 69.9419C57.088 71.4896 57.695 72.9524 58.549 74.2903C58.7264 74.5685 58.6868 74.9327 58.4534 75.1659L56.5761 77.0432L59.9568 80.4242L61.8341 78.5466C61.9701 78.4109 62.15 78.3406 62.3315 78.3406Z" fill="#E57A7A"/>
<path d="M70.0001 77.261C67.3714 77.261 64.7426 76.2601 62.7412 74.259C58.7386 70.2564 58.7386 63.7437 62.7412 59.7411C64.3556 58.1269 66.4027 57.1173 68.6609 56.8217C70.8475 56.5355 73.1049 56.9689 75.0182 58.0418C75.3568 58.2315 75.4774 58.66 75.2876 58.9987C75.0975 59.3376 74.6691 59.4582 74.3304 59.2681C70.8873 57.3373 66.5304 57.9407 63.7357 60.7356C60.2814 64.1897 60.2814 69.8103 63.7357 73.2647C65.4628 74.9915 67.7317 75.855 70.0001 75.8553C72.2691 75.8555 74.5375 74.992 76.2648 73.2647C78.9655 70.564 79.6343 66.4554 77.9287 63.0411C77.7551 62.6936 77.896 62.2712 78.2435 62.0976C78.5906 61.9241 79.0131 62.0652 79.1866 62.4127C81.1631 66.3688 80.3885 71.1298 77.2591 74.259C75.2577 76.2601 72.6289 77.261 70.0001 77.261Z" fill="#E57A7A"/>
<path d="M76.915 61.0946C76.7294 61.0946 76.5486 61.0199 76.4171 60.8883C76.2863 60.7576 76.2119 60.5769 76.2119 60.3915C76.2119 60.2064 76.2863 60.0251 76.4171 59.8943C76.5478 59.7633 76.7294 59.6884 76.915 59.6884C77.0999 59.6884 77.2812 59.7633 77.4122 59.8943C77.5429 60.0251 77.6182 60.2064 77.6182 60.3915C77.6182 60.5769 77.5429 60.7576 77.4122 60.8883C77.2806 61.0199 77.0999 61.0946 76.915 61.0946Z" fill="#E57A7A"/>
<path d="M69.008 72.1797C68.8215 72.1797 68.6427 72.1056 68.5108 71.9738L64.0644 67.527C63.7897 67.2527 63.7897 66.8074 64.0644 66.5328L66.5863 64.0106C66.7181 63.8788 66.8969 63.8049 67.0834 63.8049C67.2699 63.8049 67.449 63.8788 67.5808 64.0106L69.008 65.438L72.42 62.0262C72.6944 61.7515 73.1396 61.7515 73.4143 62.0262L75.9365 64.5484C76.2109 64.8228 76.2109 65.268 75.9365 65.5426L69.5054 71.9738C69.3733 72.1056 69.1945 72.1797 69.008 72.1797ZM65.5558 67.0299L69.008 70.4821L74.4448 65.0455L72.9172 63.5179L69.5054 66.9297C69.3735 67.0615 69.1945 67.1356 69.008 67.1356C68.8215 67.1356 68.6427 67.0615 68.5108 66.9297L67.0834 65.5023L65.5558 67.0299Z" fill="#E57A7A"/>
<defs>
<filter id="filter0_d" x="0" y="0" width="140" height="140" filterUnits="userSpaceOnUse" color-interpolation-filters="sRGB">
<feFlood flood-opacity="0" result="BackgroundImageFix"/>
<feColorMatrix in="SourceAlpha" type="matrix" values="0 0 0 0 0 0 0 0 0 0 0 0 0 0 0 0 0 0 127 0"/>
<feOffset dy="3"/>
<feGaussianBlur stdDeviation="17.5"/>
<feColorMatrix type="matrix" values="0 0 0 0 0 0 0 0 0 0 0 0 0 0 0 0 0 0 0.1 0"/>
<feBlend mode="normal" in2="BackgroundImageFix" result="effect1_dropShadow"/>
<feBlend mode="normal" in="SourceGraphic" in2="effect1_dropShadow" result="shape"/>
</filter>
</defs>
</svg>
