<svg width="36" height="37" viewBox="0 0 36 37" fill="none" xmlns="http://www.w3.org/2000/svg">
<path d="M18 17.51C19.3845 17.51 20.7378 17.0995 21.889 16.3303C23.0401 15.5611 23.9373 14.4679 24.4672 13.1888C24.997 11.9097 25.1356 10.5022 24.8655 9.14438C24.5954 7.78651 23.9287 6.53923 22.9497 5.56027C21.9708 4.5813 20.7235 3.91461 19.3656 3.64452C18.0078 3.37442 16.6003 3.51304 15.3212 4.04286C14.0421 4.57267 12.9489 5.46988 12.1797 6.62102C11.4105 7.77217 11 9.12554 11 10.51C11 12.3665 11.7375 14.147 13.0503 15.4598C14.363 16.7725 16.1435 17.51 18 17.51ZM18 5.51001C18.9889 5.51001 19.9556 5.80326 20.7779 6.35266C21.6001 6.90207 22.241 7.68297 22.6194 8.5966C22.9978 9.51023 23.0969 10.5156 22.9039 11.4855C22.711 12.4554 22.2348 13.3463 21.5355 14.0455C20.8363 14.7448 19.9454 15.221 18.9755 15.4139C18.0055 15.6069 17.0002 15.5079 16.0866 15.1294C15.173 14.751 14.3921 14.1101 13.8427 13.2879C13.2932 12.4656 13 11.4989 13 10.51C13 9.18393 13.5268 7.91216 14.4645 6.97448C15.4021 6.0368 16.6739 5.51001 18 5.51001Z" fill="#E57A7A"/>
<path d="M30.47 24.8801C28.8663 23.1851 26.9338 21.835 24.7905 20.9123C22.6473 19.9896 20.3384 19.5137 18.005 19.5137C15.6716 19.5137 13.3627 19.9896 11.2195 20.9123C9.07623 21.835 7.14369 23.1851 5.54 24.8801C5.19231 25.2514 4.99921 25.7413 5 26.2501V31.5101C5 32.0405 5.21072 32.5492 5.58579 32.9243C5.96086 33.2993 6.46957 33.5101 7 33.5101H29C29.5304 33.5101 30.0391 33.2993 30.4142 32.9243C30.7893 32.5492 31 32.0405 31 31.5101V26.2501C31.0035 25.7427 30.814 25.253 30.47 24.8801ZM29 31.5101H7V26.2401C8.41723 24.7477 10.1233 23.5594 12.0144 22.7473C13.9054 21.9353 15.942 21.5165 18 21.5165C20.0581 21.5165 22.0946 21.9353 23.9856 22.7473C25.8767 23.5594 27.5828 24.7477 29 26.2401V31.5101Z" fill="#E57A7A"/>
</svg>
