<svg width="70" height="70" viewBox="0 0 70 70" fill="none" xmlns="http://www.w3.org/2000/svg">
<circle cx="35" cy="35" r="35" fill="#E57A7A"/>
<path d="M28.5828 32.6665C28.3226 32.6665 28.0729 32.7062 27.8244 32.7424C27.9049 32.4717 27.9878 32.1964 28.1208 31.949C28.2538 31.5897 28.4614 31.2782 28.6679 30.9644C28.8406 30.6249 29.1451 30.395 29.3691 30.1045C29.6036 29.8222 29.9233 29.6344 30.1764 29.3999C30.4249 29.1549 30.7504 29.0324 31.0094 28.8597C31.2801 28.7045 31.5158 28.533 31.7678 28.4514L32.3966 28.1924L32.9496 27.9625L32.3838 25.7015L31.6873 25.8695C31.4644 25.9255 31.1926 25.9909 30.8834 26.069C30.5673 26.1274 30.2301 26.2872 29.8544 26.433C29.4834 26.5987 29.0541 26.7107 28.6551 26.9767C28.2538 27.231 27.7906 27.4434 27.3823 27.784C26.9868 28.1352 26.5096 28.4397 26.1573 28.8865C25.7723 29.3042 25.3919 29.7429 25.0968 30.2422C24.7549 30.7182 24.5228 31.2409 24.2778 31.7577C24.0561 32.2745 23.8776 32.803 23.7318 33.3164C23.4553 34.3454 23.3316 35.323 23.2838 36.1595C23.2441 36.9972 23.2674 37.6937 23.3164 38.1977C23.3339 38.4357 23.3666 38.6667 23.3899 38.8265L23.4191 39.0225L23.4494 39.0155C23.6569 39.9848 24.1346 40.8756 24.8272 41.5847C25.5198 42.2939 26.3991 42.7925 27.3632 43.0228C28.3273 43.2532 29.337 43.2059 30.2753 42.8863C31.2137 42.5668 32.0424 41.9882 32.6656 41.2174C33.2889 40.4465 33.6812 39.515 33.7971 38.5306C33.913 37.5461 33.7479 36.5489 33.3208 35.6544C32.8936 34.7599 32.222 34.0045 31.3835 33.4758C30.5451 32.947 29.574 32.6665 28.5828 32.6665ZM41.4161 32.6665C41.1559 32.6665 40.9063 32.7062 40.6578 32.7424C40.7383 32.4717 40.8211 32.1964 40.9541 31.949C41.0871 31.5897 41.2948 31.2782 41.5013 30.9644C41.6739 30.6249 41.9784 30.395 42.2024 30.1045C42.4369 29.8222 42.7566 29.6344 43.0098 29.3999C43.2583 29.1549 43.5838 29.0324 43.8428 28.8597C44.1134 28.7045 44.3491 28.533 44.6011 28.4514L45.2299 28.1924L45.7829 27.9625L45.2171 25.7015L44.5206 25.8695C44.2978 25.9255 44.0259 25.9909 43.7168 26.069C43.4006 26.1274 43.0634 26.2872 42.6878 26.433C42.3179 26.5999 41.8874 26.7107 41.4884 26.9779C41.0871 27.2322 40.6239 27.4445 40.2156 27.7852C39.8201 28.1364 39.3429 28.4409 38.9906 28.8865C38.6056 29.3042 38.2253 29.7429 37.9301 30.2422C37.5883 30.7182 37.3561 31.2409 37.1111 31.7577C36.8894 32.2745 36.7109 32.803 36.5651 33.3164C36.2886 34.3454 36.1649 35.323 36.1171 36.1595C36.0774 36.9972 36.1008 37.6937 36.1498 38.1977C36.1673 38.4357 36.1999 38.6667 36.2233 38.8265L36.2524 39.0225L36.2828 39.0155C36.4903 39.9848 36.968 40.8756 37.6606 41.5847C38.3532 42.2939 39.2324 42.7925 40.1965 43.0228C41.1606 43.2532 42.1703 43.2059 43.1086 42.8863C44.047 42.5668 44.8757 41.9882 45.499 41.2174C46.1222 40.4465 46.5145 39.515 46.6304 38.5306C46.7464 37.5461 46.5812 36.5489 46.1541 35.6544C45.727 34.7599 45.0553 34.0045 44.2169 33.4758C43.3784 32.947 42.4074 32.6665 41.4161 32.6665Z" fill="white"/>
</svg>
