<svg width="140" height="141" viewBox="0 0 140 141" fill="none" xmlns="http://www.w3.org/2000/svg">
<g filter="url(#filter0_d)">
<circle cx="70" cy="67.51" r="35" fill="white"/>
</g>
<path d="M65.5 73.135H56.5V54.01H76.75V63.01H79V54.01C79 53.4133 78.7629 52.841 78.341 52.419C77.919 51.9971 77.3467 51.76 76.75 51.76H56.5C55.9033 51.76 55.331 51.9971 54.909 52.419C54.4871 52.841 54.25 53.4133 54.25 54.01V73.135C54.25 73.7317 54.4871 74.304 54.909 74.726C55.331 75.148 55.9033 75.385 56.5 75.385H65.5V73.135Z" fill="#E57A7A"/>
<line x1="61" y1="57.01" x2="73" y2="57.01" stroke="#E57A7A"/>
<line x1="61" y1="60.01" x2="73" y2="60.01" stroke="#E57A7A"/>
<line x1="61" y1="63.01" x2="73" y2="63.01" stroke="#E57A7A"/>
<line x1="61" y1="66.01" x2="73" y2="66.01" stroke="#E57A7A"/>
<line x1="61" y1="69.01" x2="73" y2="69.01" stroke="#E57A7A"/>
<path d="M85.75 81.6625L82.2512 78.1638C83.2306 76.7839 83.6561 75.0865 83.4432 73.4079C83.2304 71.7292 82.3949 70.1917 81.1022 69.0999C79.8094 68.0081 78.1538 67.4417 76.4632 67.5128C74.7726 67.5839 73.1704 68.2874 71.9739 69.4839C70.7774 70.6804 70.0739 72.2826 70.0028 73.9732C69.9317 75.6638 70.4981 77.3194 71.5899 78.6122C72.6817 79.9049 74.2192 80.7404 75.8979 80.9532C77.5765 81.1661 79.2739 80.7406 80.6537 79.7613L84.1525 83.26L85.75 81.6625ZM76.75 78.76C75.86 78.76 74.9899 78.4961 74.2499 78.0016C73.5099 77.5072 72.9331 76.8043 72.5925 75.9821C72.2519 75.1598 72.1628 74.255 72.3365 73.3821C72.5101 72.5092 72.9387 71.7074 73.568 71.078C74.1974 70.4487 74.9992 70.0201 75.8721 69.8465C76.745 69.6728 77.6498 69.762 78.4721 70.1025C79.2943 70.4431 79.9971 71.0199 80.4916 71.7599C80.9861 72.5 81.25 73.37 81.25 74.26C81.25 75.4535 80.7759 76.5981 79.932 77.442C79.0881 78.2859 77.9435 78.76 76.75 78.76Z" fill="#E57A7A"/>
<defs>
<filter id="filter0_d" x="0" y="0.51001" width="140" height="140" filterUnits="userSpaceOnUse" color-interpolation-filters="sRGB">
<feFlood flood-opacity="0" result="BackgroundImageFix"/>
<feColorMatrix in="SourceAlpha" type="matrix" values="0 0 0 0 0 0 0 0 0 0 0 0 0 0 0 0 0 0 127 0"/>
<feOffset dy="3"/>
<feGaussianBlur stdDeviation="17.5"/>
<feColorMatrix type="matrix" values="0 0 0 0 0 0 0 0 0 0 0 0 0 0 0 0 0 0 0.1 0"/>
<feBlend mode="normal" in2="BackgroundImageFix" result="effect1_dropShadow"/>
<feBlend mode="normal" in="SourceGraphic" in2="effect1_dropShadow" result="shape"/>
</filter>
</defs>
</svg>
