<svg width="13" height="13" viewBox="0 0 13 13" fill="none" xmlns="http://www.w3.org/2000/svg">
<path d="M11.5757 10.1855C11.2994 9.53101 10.8984 8.93648 10.3951 8.43506C9.89325 7.93219 9.29881 7.53126 8.64457 7.25439C8.63871 7.25146 8.63285 7.25 8.62699 7.24707C9.53959 6.58789 10.1329 5.51416 10.1329 4.30273C10.1329 2.2959 8.50687 0.669922 6.50004 0.669922C4.4932 0.669922 2.86722 2.2959 2.86722 4.30273C2.86722 5.51416 3.46049 6.58789 4.37308 7.24853C4.36722 7.25146 4.36137 7.25293 4.35551 7.25586C3.69926 7.53271 3.11039 7.92969 2.60502 8.43652C2.10215 8.93833 1.70122 9.53277 1.42435 10.187C1.15236 10.8275 1.00567 11.5142 0.992224 12.21C0.991833 12.2256 0.994575 12.2411 1.00029 12.2557C1.006 12.2703 1.01457 12.2835 1.02549 12.2947C1.03642 12.3059 1.04947 12.3148 1.06388 12.3209C1.07829 12.327 1.09377 12.3301 1.10941 12.3301H1.98832C2.05277 12.3301 2.10404 12.2788 2.10551 12.2158C2.1348 11.085 2.5889 10.0259 3.39164 9.22314C4.2222 8.39258 5.32523 7.93555 6.50004 7.93555C7.67484 7.93555 8.77787 8.39258 9.60844 9.22314C10.4112 10.0259 10.8653 11.085 10.8946 12.2158C10.896 12.2803 10.9473 12.3301 11.0118 12.3301H11.8907C11.9063 12.3301 11.9218 12.327 11.9362 12.3209C11.9506 12.3148 11.9637 12.3059 11.9746 12.2947C11.9855 12.2835 11.9941 12.2703 11.9998 12.2557C12.0055 12.2411 12.0082 12.2256 12.0079 12.21C11.9932 11.5098 11.8482 10.8286 11.5757 10.1855ZM6.50004 6.82227C5.82767 6.82227 5.19486 6.56006 4.71879 6.08398C4.24271 5.60791 3.98051 4.9751 3.98051 4.30273C3.98051 3.63037 4.24271 2.99756 4.71879 2.52148C5.19486 2.04541 5.82767 1.7832 6.50004 1.7832C7.1724 1.7832 7.80521 2.04541 8.28129 2.52148C8.75736 2.99756 9.01957 3.63037 9.01957 4.30273C9.01957 4.9751 8.75736 5.60791 8.28129 6.08398C7.80521 6.56006 7.1724 6.82227 6.50004 6.82227Z" fill="#8C8C8C"/>
</svg>
