<svg width="24" height="24" viewBox="0 0 24 24" fill="none" xmlns="http://www.w3.org/2000/svg">
<g clip-path="url(#clip0)">
<path fill-rule="evenodd" clip-rule="evenodd" d="M18.531 5.46936C18.6008 5.53903 18.6562 5.6218 18.694 5.71291C18.7318 5.80403 18.7513 5.90171 18.7513 6.00036C18.7513 6.09902 18.7318 6.1967 18.694 6.28781C18.6562 6.37893 18.6008 6.4617 18.531 6.53136L8.03097 17.0314C7.9613 17.1012 7.87854 17.1566 7.78742 17.1944C7.6963 17.2322 7.59862 17.2517 7.49997 17.2517C7.40132 17.2517 7.30364 17.2322 7.21252 17.1944C7.1214 17.1566 7.03864 17.1012 6.96897 17.0314L1.71897 11.7814C1.57814 11.6405 1.49902 11.4495 1.49902 11.2504C1.49902 11.0512 1.57814 10.8602 1.71897 10.7194C1.8598 10.5785 2.05081 10.4994 2.24997 10.4994C2.44913 10.4994 2.64014 10.5785 2.78097 10.7194L7.49997 15.4399L17.469 5.46936C17.5386 5.39952 17.6214 5.34411 17.7125 5.3063C17.8036 5.26849 17.9013 5.24902 18 5.24902C18.0986 5.24902 18.1963 5.26849 18.2874 5.3063C18.3785 5.34411 18.4613 5.39952 18.531 5.46936Z" fill="#E57A7A"/>
<path d="M9.37497 12.0645L8.03097 10.719C7.89014 10.5781 7.69913 10.499 7.49997 10.499C7.30081 10.499 7.1098 10.5781 6.96897 10.719C6.82814 10.8598 6.74902 11.0508 6.74902 11.25C6.74902 11.4491 6.82814 11.6401 6.96897 11.781L8.31447 13.125L9.37497 12.0645ZM10.875 15.6855L12.219 17.031C12.2886 17.1008 12.3714 17.1562 12.4625 17.194C12.5536 17.2318 12.6513 17.2513 12.75 17.2513C12.8486 17.2513 12.9463 17.2318 13.0374 17.194C13.1285 17.1562 13.2113 17.1008 13.281 17.031L23.781 6.53097C23.9218 6.39014 24.0009 6.19913 24.0009 5.99997C24.0009 5.80081 23.9218 5.6098 23.781 5.46897C23.6401 5.32814 23.4491 5.24902 23.25 5.24902C23.0508 5.24902 22.8598 5.32814 22.719 5.46897L12.75 15.4395L11.9355 14.625L10.875 15.6855Z" fill="#E57A7A"/>
</g>
<defs>
<clipPath id="clip0">
<rect width="24" height="24" fill="white"/>
</clipPath>
</defs>
</svg>
