<svg width="1440" height="509" viewBox="0 0 1440 509" fill="none" xmlns="http://www.w3.org/2000/svg">
<mask id="mask0" mask-type="alpha" maskUnits="userSpaceOnUse" x="0" y="0" width="1440" height="509">
<rect width="1440" height="509" fill="#C4C4C4"/>
</mask>
<g mask="url(#mask0)">
<path d="M783.16 10.9999C1101.16 -16.8754 1362.66 12.6665 1529.66 39.9998L1855.16 451.501C1847.99 450.667 1694.4 405 1420 453C1077 513 932.977 503.418 571 474C288 451 -5.83337 354.167 -144.5 403L-176 105C-176.833 81.4997 -162.9 18.4 -108.5 40C-40.5 67 349.66 48.9996 783.16 10.9999Z" fill="#F7BDB1" fill-opacity="0.75"/>
<path d="M657 17C339 -10.8753 77.5 18.6667 -89.5 46L-415 457.501C-407.833 456.667 -211.9 416.501 62.5 464.501C405.5 524.501 511.523 493.919 873.5 464.5C1156.5 441.5 1456.33 460.167 1595 509.001V24.501C1595.83 1.00093 1595.4 -43.1001 1541 -21.5001C1473 5.49993 1090.5 54.9998 657 17Z" fill="#E57A7A"/>
</g>
</svg>
