<svg width="1440" height="242" viewBox="0 0 1440 242" fill="none" xmlns="http://www.w3.org/2000/svg">
<path d="M216 191.467C163.6 170.267 -45 216.801 -111.5 245.468L109 321.467L1449.5 300.967V181.967C1414.5 209.133 1384.7 222.467 1359.5 222.467C1328 222.467 1291 181.967 1128 131.967C1024.3 100.158 827.5 222.467 777.5 222.467C727.5 222.467 652.5 168 609 156.967C567.819 146.522 389 233.468 329.5 222.467C270 211.467 281.5 217.967 216 191.467Z" fill="url(#paint0_linear)"/>
<path d="M264 252.967C202 269.767 15.3333 106.633 -32 63.9667L-14 267.967L378 369.467L1545.5 295.967L1516.5 105.467C1516.5 -179.033 1333.5 204.967 1188.5 204.967C1153.56 204.967 1005.2 114.098 900.5 90.9668C814.5 71.9668 682.5 252.967 608.5 276.467C534.5 299.967 507 217.967 454.5 183.467C402 148.967 341.5 231.967 264 252.967Z" fill="#EFA29B" fill-opacity="0.76"/>
<defs>
<linearGradient id="paint0_linear" x1="700.25" y1="128.516" x2="700.25" y2="270.467" gradientUnits="userSpaceOnUse">
<stop stop-color="#F7BDB1"/>
<stop offset="1" stop-color="#F7BDB1" stop-opacity="0"/>
</linearGradient>
</defs>
</svg>
