<svg width="1440" height="455" viewBox="0 0 1440 455" fill="none" xmlns="http://www.w3.org/2000/svg">
<path d="M220.5 316.5C-25.0474 223.943 -285.5 609.5 -285.5 626.5L-86.5 856.468L1551 880.468V380.968C1443.67 294.135 1225.47 24.3062 962.5 76C787 110.5 674.5 316.469 599 379.469C523.5 442.469 446 401.5 220.5 316.5Z" fill="url(#paint0_linear)"/>
<path d="M264 826.967C202 843.767 15.3333 680.633 -32 637.967L-14 841.967L378 943.467L1545.5 869.967L1516.5 679.467C1516.5 394.967 1333.5 778.967 1188.5 778.967C1153.56 778.967 1005.2 688.098 900.5 664.967C814.5 645.967 682.5 826.967 608.5 850.467C534.5 873.967 507 791.967 454.5 757.467C402 722.967 341.5 805.967 264 826.967Z" fill="#EFA29B" fill-opacity="0.76"/>
<defs>
<linearGradient id="paint0_linear" x1="732.25" y1="288.469" x2="732.25" y2="880.467" gradientUnits="userSpaceOnUse">
<stop stop-color="#E57A7A"/>
<stop offset="1" stop-color="#EFA29B"/>
</linearGradient>
</defs>
</svg>
