<svg width="190" height="130" viewBox="0 0 190 130" fill="none" xmlns="http://www.w3.org/2000/svg">
<g filter="url(#filter0_d)">
<rect x="35" y="32" width="120" height="60" rx="3" fill="#016FD0"/>
</g>
<mask id="mask0" mask-type="alpha" maskUnits="userSpaceOnUse" x="35" y="32" width="120" height="60">
<rect x="35" y="32" width="120" height="60" rx="3" fill="#C4C4C4"/>
</mask>
<g mask="url(#mask0)">
<path fill-rule="evenodd" clip-rule="evenodd" d="M45 12H145V66V80.6111V112H45V61.1111V54.1667V12Z" fill="#016FD0"/>
<path fill-rule="evenodd" clip-rule="evenodd" d="M64.3887 81.6666V65.9443H80.9998L82.7776 68.2777L84.6109 65.9443H145V80.5554C145 80.5554 143.444 81.611 141.611 81.611H108.222L106.222 79.111V81.611H99.6109V77.3888C99.6109 77.3888 98.722 77.9999 96.7776 77.9999H94.5553V81.611H84.5553L82.7776 79.2221L80.9442 81.611L64.3887 81.6666Z" fill="white"/>
<path fill-rule="evenodd" clip-rule="evenodd" d="M45 54.1665L48.7222 45.4443H55.2222L57.3333 50.3332V45.4443H65.3889L66.6667 48.9999L67.8889 45.4443H104.056V47.2221C104.056 47.2221 105.944 45.4443 109.056 45.4443L120.778 45.4999L122.889 50.3332V45.4443H129.611L131.444 48.2221V45.4443H138.333V61.1665H131.5L129.722 58.3888V61.1665H119.833L118.833 58.6665H116.167L115.167 61.1665H108.444C105.778 61.1665 104.056 59.4443 104.056 59.4443V61.1665H93.9445L91.9445 58.6665V61.1665H54.2778L53.2778 58.6665H50.6111L49.6111 61.1665H45V54.1665Z" fill="white"/>
<path fill-rule="evenodd" clip-rule="evenodd" d="M50.0556 47.333L45 59.1108H48.2778L49.2222 56.7775H54.6667L55.6111 59.1108H59L53.9444 47.333H50.0556ZM51.9444 50.0552L53.6111 54.1663H50.2778L51.9444 50.0552Z" fill="#016FD0"/>
<path fill-rule="evenodd" clip-rule="evenodd" d="M59.3335 59.1108V47.333L64.0002 47.3886L66.7224 54.9441L69.389 47.333H74.0002V59.1108H71.0557V50.4441L67.9446 59.1108H65.389L62.2224 50.4441V59.1108H59.3335Z" fill="#016FD0"/>
<path fill-rule="evenodd" clip-rule="evenodd" d="M76 59.1108V47.333H85.6111V49.9997H79V51.9997H85.4444V54.4441H79V56.5552H85.6111V59.1108H76Z" fill="#016FD0"/>
<path fill-rule="evenodd" clip-rule="evenodd" d="M87.2778 47.333V59.1108H90.2223V54.9441H91.4445L94.9445 59.1108H98.5556L94.6667 54.7775C96.2778 54.6663 97.889 53.2775 97.889 51.1663C97.889 48.6663 95.9445 47.333 93.7778 47.333H87.2778ZM90.2223 49.9997H93.5556C94.3889 49.9997 94.9445 50.6108 94.9445 51.2219C94.9445 51.9997 94.1667 52.4441 93.6112 52.4441H90.2223V49.9997Z" fill="#016FD0"/>
<path fill-rule="evenodd" clip-rule="evenodd" d="M102.166 59.1108H99.1665V47.333H102.166V59.1108Z" fill="#016FD0"/>
<path fill-rule="evenodd" clip-rule="evenodd" d="M109.278 59.1108H108.611C105.5 59.1108 103.556 56.6663 103.556 53.2774C103.556 49.833 105.445 47.333 109.389 47.333H112.611V50.1108H109.222C107.611 50.1108 106.5 51.3886 106.5 53.2774C106.5 55.5552 107.778 56.4997 109.667 56.4997H110.445L109.278 59.1108Z" fill="#016FD0"/>
<path fill-rule="evenodd" clip-rule="evenodd" d="M115.667 47.333L110.611 59.1108H113.889L114.834 56.7775H120.278L121.222 59.1108H124.611L119.556 47.333H115.667ZM117.556 50.0552L119.222 54.1663H115.889L117.556 50.0552Z" fill="#016FD0"/>
<path fill-rule="evenodd" clip-rule="evenodd" d="M124.889 59.1108V47.333H128.611L133.389 54.7219V47.333H136.334V59.1108H132.723L127.834 51.4997V59.1108H124.889Z" fill="#016FD0"/>
<path fill-rule="evenodd" clip-rule="evenodd" d="M66.4443 79.6664V67.8887H75.9999V70.5553H69.3888V72.5553H75.8332V75.0553H69.3888V77.1109H75.9999V79.6664H66.4443Z" fill="#016FD0"/>
<path fill-rule="evenodd" clip-rule="evenodd" d="M113.389 79.6664V67.8887H123V70.5553H116.389V72.5553H122.833V75.0553H116.389V77.1109H123V79.6664H113.389Z" fill="#016FD0"/>
<path fill-rule="evenodd" clip-rule="evenodd" d="M76.3889 79.6664L81.0556 73.8887L76.2778 67.8887H80.0001L82.8334 71.6109L85.6667 67.8887H89.2223L84.5001 73.7776L89.2223 79.6664H85.5001L82.7223 76.0553L80.0556 79.6664H76.3889Z" fill="#016FD0"/>
<path fill-rule="evenodd" clip-rule="evenodd" d="M89.5557 67.9443V79.7221H92.5557V75.9999H95.6668C98.2779 75.9999 100.278 74.611 100.278 71.8888C100.278 69.6665 98.7223 67.9443 96.0556 67.9443H89.5557ZM92.5557 70.5554H95.8334C96.6668 70.5554 97.2779 71.0554 97.2779 71.8888C97.2779 72.6665 96.6668 73.2221 95.8334 73.2221H92.6112V70.5554H92.5557Z" fill="#016FD0"/>
<path fill-rule="evenodd" clip-rule="evenodd" d="M101.556 67.8887V79.6664H104.5V75.4998H105.722L109.222 79.6664H112.833L108.945 75.3331C110.556 75.222 112.167 73.8331 112.167 71.722C112.167 69.222 110.222 67.8887 108.056 67.8887H101.556ZM104.5 70.5553H107.833C108.667 70.5553 109.222 71.1664 109.222 71.7776C109.222 72.5553 108.445 72.9998 107.889 72.9998H104.5V70.5553Z" fill="#016FD0"/>
<path fill-rule="evenodd" clip-rule="evenodd" d="M124.389 79.6664V77.1109H130.278C131.167 77.1109 131.5 76.6664 131.5 76.1109C131.5 75.6109 131.111 75.1109 130.278 75.1109H127.611C125.278 75.1109 124 73.722 124 71.6109C124 69.722 125.167 67.8887 128.611 67.8887H134.333L133.111 70.5553H128.167C127.222 70.5553 126.944 71.0553 126.944 71.4998C126.944 71.9998 127.278 72.4998 128 72.4998H130.778C133.333 72.4998 134.444 73.9442 134.444 75.8887C134.444 77.9442 133.222 79.6109 130.611 79.6109L124.389 79.6664Z" fill="#016FD0"/>
<path fill-rule="evenodd" clip-rule="evenodd" d="M135.167 79.6664V77.1109H140.778C141.667 77.1109 142 76.6664 142 76.1109C142 75.6109 141.611 75.1109 140.778 75.1109H138.389C136.056 75.1109 134.778 73.722 134.778 71.6109C134.778 69.722 135.944 67.8887 139.389 67.8887H145L143.778 70.5553H138.945C138 70.5553 137.722 71.0553 137.722 71.4998C137.722 71.9998 138.056 72.4998 138.778 72.4998H141.333C143.889 72.4998 145 73.9442 145 75.8887C145 77.9442 143.778 79.6109 141.167 79.6109L135.167 79.6664Z" fill="#016FD0"/>
</g>
<defs>
<filter id="filter0_d" x="0" y="0" width="190" height="130" filterUnits="userSpaceOnUse" color-interpolation-filters="sRGB">
<feFlood flood-opacity="0" result="BackgroundImageFix"/>
<feColorMatrix in="SourceAlpha" type="matrix" values="0 0 0 0 0 0 0 0 0 0 0 0 0 0 0 0 0 0 127 0"/>
<feOffset dy="3"/>
<feGaussianBlur stdDeviation="17.5"/>
<feColorMatrix type="matrix" values="0 0 0 0 0 0 0 0 0 0 0 0 0 0 0 0 0 0 0.1 0"/>
<feBlend mode="normal" in2="BackgroundImageFix" result="effect1_dropShadow"/>
<feBlend mode="normal" in="SourceGraphic" in2="effect1_dropShadow" result="shape"/>
</filter>
</defs>
</svg>
