<svg width="190" height="130" viewBox="0 0 190 130" fill="none" xmlns="http://www.w3.org/2000/svg">
<g filter="url(#filter0_d)">
<rect x="35" y="32" width="120" height="60" rx="3" fill="white"/>
</g>
<path fill-rule="evenodd" clip-rule="evenodd" d="M95.1327 76.7611C99.1327 73.1151 101.646 67.8407 101.646 61.9646C101.646 56.0885 99.1327 50.8142 95.1327 47.1681C91.6283 43.9469 86.9558 42 81.823 42C70.885 42 62 50.9204 62 61.9646C62 72.9735 70.885 81.9292 81.823 81.9292C86.9558 81.9292 91.5929 79.9469 95.1327 76.7611Z" fill="#009DDD"/>
<path fill-rule="evenodd" clip-rule="evenodd" d="M108.443 42C103.31 42 98.6728 43.9469 95.1329 47.1681C94.425 47.8053 93.7524 48.5133 93.1152 49.292H97.1152C97.6462 49.9646 98.1772 50.6726 98.6374 51.4159H91.6285C91.2037 52.0885 90.8143 52.7965 90.4958 53.5398H99.8055C100.124 54.2124 100.407 54.9204 100.655 55.6637H89.6816C89.4692 56.3363 89.2568 57.0442 89.1152 57.7876H101.257C101.54 59.1327 101.717 60.5487 101.717 62C101.717 64.2301 101.363 66.354 100.69 68.3363H89.717C89.9648 69.0442 90.248 69.7522 90.5666 70.4602H99.8763C99.5223 71.2035 99.1683 71.9115 98.7436 72.5841H91.7347C92.1949 73.3274 92.6905 74.0354 93.2568 74.708H97.1152C96.5135 75.4513 95.8409 76.1593 95.1329 76.8319C98.6374 80.0531 103.31 82 108.443 82C119.381 82 128.266 73.0796 128.266 62.0354C128.23 50.9204 119.381 42 108.443 42Z" fill="#ED1B2E"/>
<path fill-rule="evenodd" clip-rule="evenodd" d="M125.61 73.0796C125.61 72.7256 125.894 72.4424 126.248 72.4424C126.601 72.4424 126.885 72.7256 126.885 73.0796C126.885 73.4335 126.601 73.7167 126.248 73.7167C125.894 73.7167 125.61 73.4335 125.61 73.0796ZM126.248 73.5751C126.531 73.5751 126.743 73.3627 126.743 73.0796C126.743 72.7964 126.531 72.584 126.248 72.584C125.964 72.584 125.752 72.7964 125.752 73.0796C125.752 73.3627 125.964 73.5751 126.248 73.5751ZM126.141 73.3627H126V72.7964H126.248C126.283 72.7964 126.354 72.7964 126.389 72.8318C126.425 72.8672 126.46 72.9026 126.46 72.9734C126.46 73.0442 126.425 73.0796 126.354 73.115L126.46 73.3627H126.318L126.248 73.1504H126.141V73.3627V73.0442H126.212C126.248 73.0442 126.283 73.0442 126.283 73.0442C126.318 73.0442 126.318 73.0088 126.318 72.9734C126.318 72.938 126.318 72.938 126.283 72.9026C126.248 72.9026 126.212 72.9026 126.212 72.9026H126.141V73.0442V73.3627Z" fill="#ED1B2E"/>
<path fill-rule="evenodd" clip-rule="evenodd" d="M121.398 66.2837C121.398 65.9297 121.682 65.6465 122.036 65.6465C122.39 65.6465 122.673 65.9297 122.673 66.2837C122.673 66.6376 122.39 66.9208 122.036 66.9208C121.682 66.9208 121.398 66.6376 121.398 66.2837ZM122.036 66.7792C122.319 66.7792 122.531 66.5668 122.531 66.2837C122.531 66.0005 122.319 65.7881 122.036 65.7881C121.752 65.7881 121.54 66.0005 121.54 66.2837C121.575 66.5668 121.788 66.7792 122.036 66.7792ZM121.965 66.5668H121.823V66.0005H122.071C122.106 66.0005 122.177 66.0005 122.213 66.0359C122.248 66.0713 122.283 66.1067 122.283 66.1775C122.283 66.2483 122.248 66.2837 122.177 66.3191L122.283 66.5668H122.142L122.071 66.3544H121.965V66.5668V66.2483H122.036C122.071 66.2483 122.106 66.2483 122.106 66.2483C122.142 66.2483 122.142 66.2129 122.142 66.1775C122.142 66.1421 122.142 66.1421 122.106 66.1067C122.071 66.1067 122.036 66.1067 122.036 66.1067H121.965V66.2483V66.5668Z" fill="white"/>
<path fill-rule="evenodd" clip-rule="evenodd" d="M79.3453 66.9208H76.8674L78.3541 59.1332L74.9913 66.9208H72.7258L72.301 59.204L70.8497 66.9208H68.6196L70.5311 56.7969H74.3541L74.5665 63.0624L77.2922 56.7969H81.2922L79.3453 66.9208Z" fill="white"/>
<path fill-rule="evenodd" clip-rule="evenodd" d="M106.921 66.8146C106.248 66.9916 105.717 67.0978 105.151 67.0978C103.877 67.0978 103.204 66.4606 103.204 65.2924C103.204 65.0447 103.239 64.7969 103.275 64.5491L103.416 63.7349L103.523 63.0978L104.655 56.7969H107.098L106.744 58.673H108.018L107.664 60.6907H106.39L105.753 64.1243C105.717 64.2659 105.717 64.3721 105.717 64.4783C105.717 64.9031 105.965 65.0801 106.567 65.0801C106.85 65.0801 107.063 65.0447 107.239 65.0093L106.921 66.8146Z" fill="white"/>
<path fill-rule="evenodd" clip-rule="evenodd" d="M114.106 58.7786C113.894 58.7078 113.859 58.7078 113.823 58.6724C113.682 58.637 113.611 58.637 113.611 58.637C113.54 58.637 113.469 58.6016 113.363 58.6016C112.549 58.6016 111.982 58.9556 111.204 59.9467L111.416 58.7078H109.186L107.699 66.9555H110.177C111.062 61.929 111.451 61.044 112.62 61.044C112.726 61.044 112.797 61.044 112.938 61.0794L113.221 61.1502L114.106 58.7786Z" fill="white"/>
<path fill-rule="evenodd" clip-rule="evenodd" d="M97.1152 61.2916C97.1152 62.3181 97.6816 63.0615 99.0267 63.5925C100.053 64.0172 100.195 64.1234 100.195 64.5128C100.195 65.0084 99.7347 65.2562 98.7789 65.2562C98.0355 65.2562 97.3276 65.15 96.5488 64.9376L96.1948 66.8491L96.301 66.8845L96.7612 66.9553C96.9028 66.9907 97.1152 66.9907 97.3984 67.0261C98.0001 67.0615 98.4603 67.0969 98.7789 67.0969C101.398 67.0969 102.637 66.2119 102.637 64.3358C102.637 63.2031 102.142 62.5305 100.867 62.0349C99.8055 61.6102 99.6992 61.5394 99.6992 61.15C99.6992 60.6898 100.124 60.4774 100.903 60.4774C101.398 60.4774 102.071 60.5128 102.708 60.5836L103.062 58.6721C102.425 58.5659 101.434 58.4951 100.867 58.4951C98.1063 58.5305 97.1152 59.7695 97.1152 61.2916Z" fill="white"/>
<path fill-rule="evenodd" clip-rule="evenodd" d="M87.38 66.9206H85.3269L85.3622 66.0711C84.7251 66.7436 83.9109 67.0622 82.7782 67.0622C81.433 67.0622 80.5127 66.1419 80.5127 64.8321C80.5127 62.8144 82.1056 61.6463 84.8313 61.6463C85.1145 61.6463 85.4684 61.6817 85.8224 61.7171C85.8932 61.4339 85.9286 61.3277 85.9286 61.1861C85.9286 60.6551 85.5038 60.4428 84.3357 60.4428C83.6277 60.4428 82.849 60.5489 82.2826 60.6551L81.9286 60.7259L81.7162 60.7967L82.0702 58.956C83.3092 58.6374 84.1233 58.5312 85.0083 58.5312C87.1322 58.5312 88.2649 59.3808 88.2649 60.9383C88.2649 61.3277 88.2295 61.6463 88.0525 62.5666L87.5215 65.4693L87.4508 66.0003L87.38 66.425L87.3446 66.7082L87.38 66.9206ZM85.5746 63.2746C85.3269 63.2392 85.1853 63.2392 85.0083 63.2392C83.6277 63.2392 82.9198 63.664 82.9198 64.4781C82.9198 64.9737 83.2738 65.3277 83.8047 65.3277C84.7959 65.3277 85.5392 64.4781 85.5746 63.2746Z" fill="white"/>
<path fill-rule="evenodd" clip-rule="evenodd" d="M95.4515 66.7431C94.6019 66.9555 93.7878 67.0617 92.9382 67.0617C90.1772 67.0617 88.7612 65.7874 88.7612 63.3803C88.7612 60.5485 90.6019 58.46 93.0798 58.46C95.0975 58.46 96.4073 59.6281 96.4073 61.4688C96.4073 62.0706 96.3365 62.6724 96.0887 63.4865H91.1683C91.1329 63.6281 91.1329 63.6635 91.1329 63.7343C91.1329 64.6901 91.8763 65.1856 93.2922 65.1856C94.1772 65.1856 94.9559 65.0086 95.8409 64.6547L95.4515 66.7431ZM94.1418 61.8582C94.1418 61.6812 94.1772 61.5396 94.1772 61.4334C94.1772 60.7608 93.7524 60.3715 93.009 60.3715C92.2303 60.3715 91.6639 60.9024 91.4515 61.8582H94.1418Z" fill="white"/>
<path fill-rule="evenodd" clip-rule="evenodd" d="M121.788 63.2031C121.434 65.9287 119.523 67.1677 117.009 67.1677C114.213 67.1677 113.08 65.4686 113.08 63.3801C113.08 60.4774 114.992 58.4951 117.93 58.4951C120.478 58.4951 121.859 60.1234 121.859 62.2119C121.823 62.6721 121.823 62.7075 121.788 63.2031ZM119.239 62.1411C119.239 61.2916 118.885 60.4774 117.894 60.4774C116.62 60.4774 115.841 61.9641 115.841 63.3093C115.841 64.442 116.372 65.1854 117.257 65.15C117.788 65.15 118.921 64.4066 119.169 63.1323C119.204 62.8137 119.239 62.4951 119.239 62.1411Z" fill="white"/>
<defs>
<filter id="filter0_d" x="0" y="0" width="190" height="130" filterUnits="userSpaceOnUse" color-interpolation-filters="sRGB">
<feFlood flood-opacity="0" result="BackgroundImageFix"/>
<feColorMatrix in="SourceAlpha" type="matrix" values="0 0 0 0 0 0 0 0 0 0 0 0 0 0 0 0 0 0 127 0"/>
<feOffset dy="3"/>
<feGaussianBlur stdDeviation="17.5"/>
<feColorMatrix type="matrix" values="0 0 0 0 0 0 0 0 0 0 0 0 0 0 0 0 0 0 0.1 0"/>
<feBlend mode="normal" in2="BackgroundImageFix" result="effect1_dropShadow"/>
<feBlend mode="normal" in="SourceGraphic" in2="effect1_dropShadow" result="shape"/>
</filter>
</defs>
</svg>
