<svg width="190" height="130" viewBox="0 0 190 130" fill="none" xmlns="http://www.w3.org/2000/svg">
<g filter="url(#filter0_d)">
<rect x="35" y="32" width="120" height="60" rx="3" fill="white"/>
</g>
<path fill-rule="evenodd" clip-rule="evenodd" d="M108.786 82L109.821 81.9643L110.857 81.8929L111.857 81.75L112.821 81.5714L113.786 81.3571L114.75 81.1071L115.678 80.7857L116.607 80.4286L117.5 80L118.357 79.5714L119.178 79.0714L120 78.5714L120.786 78L121.536 77.4286L122.25 76.7857L122.964 76.1071L123.643 75.4286L124.25 74.7143L124.857 73.9286L125.393 73.1429L125.928 72.3571L126.428 71.5L126.857 70.6429L127.25 69.75L127.607 68.8571L127.928 67.9286L128.214 66.9643L128.428 66L128.607 65L128.714 64L128.786 63L128.821 61.9643L128.786 60.9286L128.714 59.9286L128.607 58.9286L128.428 57.9286L128.214 56.9643L127.928 56.0357L127.607 55.1071L127.25 54.2143L126.857 53.3214L126.428 52.4643L125.928 51.6071L125.393 50.8214L124.857 50.0357L124.25 49.2857L123.643 48.5357L122.964 47.8571L122.25 47.1786L121.536 46.5714L120.786 45.9643L120 45.3929L119.178 44.8929L118.357 44.4286L117.5 43.9643L116.607 43.5714L115.678 43.2143L114.75 42.8929L113.786 42.6071L112.821 42.3929L111.857 42.2143L110.857 42.1071L109.821 42.0357L108.786 42L107.786 42.0357L106.75 42.1071L105.75 42.2143L104.786 42.3929L103.821 42.6071L102.857 42.8929L101.928 43.2143L101.036 43.5714L100.143 43.9643L99.2856 44.4286L98.4284 44.8929L97.6427 45.3929L96.857 45.9643L96.107 46.5714L95.357 47.1786L94.6784 47.8571L93.9999 48.5357L93.3927 49.2857L92.7856 50.0357L92.2499 50.8214L91.7141 51.6071L91.2499 52.4643L90.7856 53.3214L90.3927 54.2143L90.0356 55.1071L89.7499 56.0357L89.4642 56.9643L89.2499 57.9286L89.0713 58.9286L88.9284 59.9286L88.857 60.9286L88.8213 61.9643L88.857 63L88.9284 64L89.0713 65L89.2499 66L89.4642 66.9643L89.7499 67.9286L90.0356 68.8571L90.3927 69.75L90.7856 70.6429L91.2499 71.5L91.7141 72.3571L92.2499 73.1429L92.7856 73.9286L93.3927 74.7143L93.9999 75.4286L94.6784 76.1071L95.357 76.7857L96.107 77.4286L96.857 78L97.6427 78.5714L98.4284 79.0714L99.2856 79.5714L100.143 80L101.036 80.4286L101.928 80.7857L102.857 81.1071L103.821 81.3571L104.786 81.5714L105.75 81.75L106.75 81.8929L107.786 81.9643L108.786 82Z" fill="#FCB331"/>
<path fill-rule="evenodd" clip-rule="evenodd" d="M82.0357 82L83.0714 81.9643L84.0714 81.8929L85.0714 81.75L86.0714 81.5714L87.0357 81.3571L88 81.1071L88.9286 80.7857L89.8214 80.4286L90.7143 80L91.5714 79.5714L92.3929 79.0714L93.2143 78.5714L94 78L94.75 77.4286L95.4643 76.7857L96.1786 76.1071L96.8214 75.4286L97.4643 74.7143L98.0357 73.9286L98.6071 73.1429L99.1071 72.3571L99.6071 71.5L100.036 70.6429L100.429 69.75L100.786 68.8571L101.107 67.9286L101.393 66.9643L101.607 66L101.786 65L101.893 64L101.964 63L102 61.9643L101.964 60.9286L101.893 59.9286L101.786 58.9286L101.607 57.9286L101.393 56.9643L101.107 56.0357L100.786 55.1071L100.429 54.2143L100.036 53.3214L99.6071 52.4643L99.1071 51.6071L98.6071 50.8214L98.0357 50.0357L97.4643 49.2857L96.8214 48.5357L96.1786 47.8571L95.4643 47.1786L94.75 46.5714L94 45.9643L93.2143 45.3929L92.3929 44.8929L91.5714 44.4286L90.7143 43.9643L89.8214 43.5714L88.9286 43.2143L88 42.8929L87.0357 42.6071L86.0714 42.3929L85.0714 42.2143L84.0714 42.1071L83.0714 42.0357L82.0357 42L81 42.0357L80 42.1071L79 42.2143L78 42.3929L77.0357 42.6071L76.1071 42.8929L75.1429 43.2143L74.25 43.5714L73.3571 43.9643L72.5 44.4286L71.6429 44.8929L70.8571 45.3929L70.0714 45.9643L69.3214 46.5714L68.5714 47.1786L67.8929 47.8571L67.2143 48.5357L66.5714 49.2857L66 50.0357L65.4286 50.8214L64.9286 51.6071L64.4286 52.4643L64 53.3214L63.5714 54.2143L63.2143 55.1071L62.8929 56.0357L62.6429 56.9643L62.4286 57.9286L62.25 58.9286L62.1071 59.9286L62.0357 60.9286L62 61.9643L62.0357 63L62.1071 64L62.25 65L62.4286 66L62.6429 66.9643L62.8929 67.9286L63.2143 68.8571L63.5714 69.75L64 70.6429L64.4286 71.5L64.9286 72.3571L65.4286 73.1429L66 73.9286L66.5714 74.7143L67.2143 75.4286L67.8929 76.1071L68.5714 76.7857L69.3214 77.4286L70.0714 78L70.8571 78.5714L71.6429 79.0714L72.5 79.5714L73.3571 80L74.25 80.4286L75.1429 80.7857L76.1071 81.1071L77.0357 81.3571L78 81.5714L79 81.75L80 81.8929L81 81.9643L82.0357 82Z" fill="#ED1B2E"/>
<path fill-rule="evenodd" clip-rule="evenodd" d="M93.0713 49.6784H103.714V48.5713H93.9999L93.0713 49.6784Z" fill="#FCB331"/>
<path fill-rule="evenodd" clip-rule="evenodd" d="M91.5 52.0714H103.714V51H92.1429L91.5 52.0714Z" fill="#FCB331"/>
<path fill-rule="evenodd" clip-rule="evenodd" d="M90.2856 54.4997H103.714V53.3926H90.7856L90.2856 54.4997Z" fill="#FCB331"/>
<path fill-rule="evenodd" clip-rule="evenodd" d="M89.5 56.8927H103.714V55.8213H89.8214L89.5 56.8927Z" fill="#FCB331"/>
<path fill-rule="evenodd" clip-rule="evenodd" d="M89.9646 68.5714H103.75V67.5H89.6074L89.9646 68.5714Z" fill="#FCB331"/>
<path fill-rule="evenodd" clip-rule="evenodd" d="M90.9639 70.9997H103.75V69.8926H90.4639L90.9639 70.9997Z" fill="#FCB331"/>
<path fill-rule="evenodd" clip-rule="evenodd" d="M92.3924 73.3927H103.75V72.3213H91.7139L92.3924 73.3927Z" fill="#FCB331"/>
<path fill-rule="evenodd" clip-rule="evenodd" d="M94.393 75.821H103.75V74.7139H93.4287L94.393 75.821Z" fill="#FCB331"/>
<path fill-rule="evenodd" clip-rule="evenodd" d="M89 59.322H103.714V58.2148H89.2143L89 59.322Z" fill="#FCB331"/>
<path fill-rule="evenodd" clip-rule="evenodd" d="M97.9639 66.1784H103.571V65.0713H98.1782L97.9639 66.1784Z" fill="#FCB331"/>
<path fill-rule="evenodd" clip-rule="evenodd" d="M98.3931 63.7501H103.572V62.6787H98.6073L98.3931 63.7501Z" fill="#FCB331"/>
<path fill-rule="evenodd" clip-rule="evenodd" d="M88.6426 62.6787H90.1069V63.7501H88.714L88.6426 62.6787Z" fill="#FCB331"/>
<path fill-rule="evenodd" clip-rule="evenodd" d="M85.9286 61.3569H85.8214L85.7143 61.3212H85.6429L85.5357 61.2854H85.4643H85.3929L85.2857 61.2497H85.2143H85.1071L85 61.214H84.8929H84.75H84.6071H84.4643L84.2857 61.2497H84.0714H83.9643L83.8214 61.2854L83.7143 61.3212L83.6071 61.3569L83.5 61.4283L83.4286 61.464L83.3571 61.5354L83.2857 61.6069L83.25 61.6783L83.2143 61.7497V61.8212V61.8926V61.9997L83.25 62.0712L83.3214 62.1783L83.3571 62.2497L83.5 62.3926L83.6786 62.4997L83.8571 62.5712L84.0714 62.6426L84.2857 62.714L84.5 62.7854L84.7143 62.8569L84.9286 62.964L85.1429 63.0712L85.3214 63.214L85.5 63.3926L85.6429 63.6069L85.75 63.8569L85.8214 64.1426L85.8571 64.5354L85.8214 64.9283L85.7857 65.2497L85.6786 65.5354L85.5714 65.7854L85.4286 65.9997L85.2857 66.214L85.1071 66.3926L84.9286 66.5354L84.7143 66.6426L84.5 66.7497L84.2857 66.8569L84.0357 66.9283L83.8214 66.964L83.5714 66.9997L83.3571 67.0354H83.1429H82.9286H82.6429H82.3571H82.1429H81.8929H81.7143L81.5357 66.9997H81.3571L81.2143 66.964H81.0714L80.9286 66.9283H80.8214L80.6786 66.8926L80.5714 66.8569L80.4643 66.8212L80.3571 66.7854L80.25 66.7497L80.5714 65.2497H80.6071L80.6786 65.2854L80.7857 65.3212H80.8929L81.0357 65.3569L81.1429 65.3926L81.2857 65.4283L81.4643 65.464H81.6429L81.8214 65.4997L82 65.5354H82.1786H82.3929L82.5714 65.5712H82.75L82.9643 65.5354L83.1429 65.4997L83.3214 65.464L83.4286 65.3926L83.5357 65.2854L83.6071 65.1783L83.6429 65.0712L83.6786 64.964L83.7143 64.8926V64.6783L83.6786 64.4997L83.5357 64.3926L83.3929 64.2497L83.1786 64.1783L82.9286 64.0712L82.6786 63.964L82.4286 63.8569L82.1429 63.7497L81.8929 63.6069L81.6429 63.4283L81.4286 63.214L81.2857 62.964L81.1429 62.6426L81.0714 62.2854L81.1071 61.8569L81.1429 61.6069L81.1786 61.3569L81.25 61.1069L81.3214 60.8926L81.4286 60.6783L81.5357 60.5354L81.6786 60.3569L81.8571 60.214L82.0714 60.0712L82.2857 59.964L82.5 59.8569L82.7857 59.7854L83.1071 59.714L83.4286 59.6783L83.7857 59.6426H84.1786H84.4286H84.6786L84.8571 59.6783H85.0714H85.2143H85.3929L85.5357 59.714H85.6429L85.75 59.7497H85.8571L85.9286 59.7854H86.0357H86.0714H86.1429L86.2143 59.8211H86.25L85.9286 61.3569Z" fill="white"/>
<path d="M85.9286 61.3569H85.8214L85.7143 61.3212H85.6429L85.5357 61.2854H85.4643H85.3929L85.2857 61.2497H85.2143H85.1071L85 61.214H84.8929H84.75H84.6071H84.4643L84.2857 61.2497H84.0714H83.9643L83.8214 61.2854L83.7143 61.3212L83.6071 61.3569L83.5 61.4283L83.4286 61.464L83.3571 61.5354L83.2857 61.6069L83.25 61.6783L83.2143 61.7497V61.8212V61.8926V61.9997L83.25 62.0712L83.3214 62.1783L83.3571 62.2497L83.5 62.3926L83.6786 62.4997L83.8571 62.5712L84.0714 62.6426L84.2857 62.714L84.5 62.7854L84.7143 62.8569L84.9286 62.964L85.1429 63.0712L85.3214 63.214L85.5 63.3926L85.6429 63.6069L85.75 63.8569L85.8214 64.1426L85.8571 64.5354L85.8214 64.9283L85.7857 65.2497L85.6786 65.5354L85.5714 65.7854L85.4286 65.9997L85.2857 66.214L85.1071 66.3926L84.9286 66.5354L84.7143 66.6426L84.5 66.7497L84.2857 66.8569L84.0357 66.9283L83.8214 66.964L83.5714 66.9997L83.3571 67.0354H83.1429H82.9286H82.6429H82.3571H82.1429H81.8929H81.7143L81.5357 66.9997H81.3571L81.2143 66.964H81.0714L80.9286 66.9283H80.8214L80.6786 66.8926L80.5714 66.8569L80.4643 66.8212L80.3571 66.7854L80.25 66.7497L80.5714 65.2497H80.6071L80.6786 65.2854L80.7857 65.3212H80.8929L81.0357 65.3569L81.1429 65.3926L81.2857 65.4283L81.4643 65.464H81.6429L81.8214 65.4997L82 65.5354H82.1786H82.3929L82.5714 65.5712H82.75L82.9643 65.5354L83.1429 65.4997L83.3214 65.464L83.4286 65.3926L83.5357 65.2854L83.6071 65.1783L83.6429 65.0712L83.6786 64.964L83.7143 64.8926V64.6783L83.6786 64.4997L83.5357 64.3926L83.3929 64.2497L83.1786 64.1783L82.9286 64.0712L82.6786 63.964L82.4286 63.8569L82.1429 63.7497L81.8929 63.6069L81.6429 63.4283L81.4286 63.214L81.2857 62.964L81.1429 62.6426L81.0714 62.2854L81.1071 61.8569L81.1429 61.6069L81.1786 61.3569L81.25 61.1069L81.3214 60.8926L81.4286 60.6783L81.5357 60.5354L81.6786 60.3569L81.8571 60.214L82.0714 60.0712L82.2857 59.964L82.5 59.8569L82.7857 59.7854L83.1071 59.714L83.4286 59.6783L83.7857 59.6426H84.1786H84.4286H84.6786L84.8571 59.6783H85.0714H85.2143H85.3929L85.5357 59.714H85.6429L85.75 59.7497H85.8571L85.9286 59.7854H86.0357H86.0714H86.1429L86.2143 59.8211H86.25L85.9286 61.3569Z" stroke="white" stroke-width="0.216" stroke-miterlimit="2.6131"/>
<path fill-rule="evenodd" clip-rule="evenodd" d="M87.5001 58.1436H89.393L89.1073 59.7864H90.2501L90.0001 61.3221L88.8216 61.2864L88.143 65.0364V65.1793L88.1787 65.2864L88.2501 65.3935L88.3216 65.465L88.4644 65.5007L88.6073 65.5364L88.7501 65.5721H88.893H89.0359H89.1787L89.3216 65.5364L89.4287 65.5007H89.5001L89.5716 65.465H89.6073L89.393 66.715L89.3216 66.7507H89.2859L89.2501 66.7864L89.1787 66.8221H89.143L89.1073 66.8578L89.0359 66.8936H88.9644L88.893 66.9293H88.8216L88.7501 66.965H88.6787H88.5716L88.5001 67.0007H88.393H88.2501H87.7501H87.4644L87.2501 66.965L87.0359 66.9293L86.8573 66.8936L86.6787 66.8221L86.5716 66.7507L86.4644 66.6793L86.3573 66.5721L86.2858 66.5007L86.2501 66.3578L86.2144 66.2507L86.1787 66.1436V66.0007V65.8578L86.2144 65.6793V65.5007L87.5001 58.1436Z" fill="white"/>
<path d="M87.5001 58.1436H89.393L89.1073 59.7864H90.2501L90.0001 61.3221L88.8216 61.2864L88.143 65.0364V65.1793L88.1787 65.2864L88.2501 65.3935L88.3216 65.465L88.4644 65.5007L88.6073 65.5364L88.7501 65.5721H88.893H89.0359H89.1787L89.3216 65.5364L89.4287 65.5007H89.5001L89.5716 65.465H89.6073L89.393 66.715L89.3216 66.7507H89.2859L89.2501 66.7864L89.1787 66.8221H89.143L89.1073 66.8578L89.0359 66.8936H88.9644L88.893 66.9293H88.8216L88.7501 66.965H88.6787H88.5716L88.5001 67.0007H88.393H88.2501H87.7501H87.4644L87.2501 66.965L87.0359 66.9293L86.8573 66.8936L86.6787 66.8221L86.5716 66.7507L86.4644 66.6793L86.3573 66.5721L86.2858 66.5007L86.2501 66.3578L86.2144 66.2507L86.1787 66.1436V66.0007V65.8578L86.2144 65.6793V65.5007L87.5001 58.1436Z" stroke="white" stroke-width="0.216" stroke-miterlimit="2.6131"/>
<path fill-rule="evenodd" clip-rule="evenodd" d="M91.7143 63.8569V63.964V64.1069V64.214L91.75 64.3569L91.7857 64.464L91.8214 64.6069L91.9286 64.714L92 64.8569L92.0714 64.964L92.1786 65.0712L92.2857 65.1426L92.4286 65.2497L92.5357 65.3212L92.6786 65.3569L92.8214 65.4283L92.9286 65.464H93.1071L93.2857 65.4997H93.4643L93.6429 65.5354H93.8214H94H94.1786L94.3571 65.4997H94.5357L94.7143 65.464L94.8929 65.4283L95.1071 65.3569L95.2857 65.2854L95.4643 65.214L95.6786 65.1069L95.8571 64.964L95.5714 66.6426L95.4643 66.6783L95.3571 66.7497L95.25 66.7854L95.1786 66.8212L95.0714 66.8569L94.9643 66.8926L94.8571 66.9283H94.75L94.6071 66.964H94.4643L94.3214 66.9997H94.1786H94H93.8214H93.6071H93.3929H93.0714L92.7143 66.964L92.3929 66.9283L92.0357 66.8569L91.7143 66.7497L91.3929 66.6069L91.1071 66.464L90.8214 66.2497L90.5357 66.0354L90.3214 65.7497L90.1429 65.4283L89.9643 65.0712L89.8571 64.6783L89.7857 64.214L89.75 63.714L89.7857 63.1783L89.8214 62.964L89.8571 62.714L89.8929 62.464L90 62.1783L90.0714 61.8569L90.2143 61.5712L90.3571 61.2854L90.5357 60.9997L90.75 60.7497L91.0357 60.464L91.3214 60.2497L91.6786 60.0354L92.0714 59.8926L92.5 59.7497L92.9643 59.6783L93.5357 59.6426H93.7857L94.0714 59.6783L94.3571 59.714L94.6071 59.7854L94.8929 59.8926L95.1429 60.0354L95.3929 60.1783L95.6071 60.3569L95.8214 60.6069L96 60.8569L96.1071 61.1783L96.2143 61.5354L96.2857 61.9283V62.3926L96.2143 62.9283L96.1429 63.464L96.1071 63.8926H91.1786L91.5 62.5712H94.4286L94.4643 62.3926V62.214L94.4286 62.0712L94.3929 61.964L94.3571 61.8212L94.3214 61.714L94.25 61.6069L94.1786 61.4997L94.1071 61.4283L94 61.3569L93.8929 61.2854L93.8214 61.2497L93.7143 61.214L93.6071 61.1783L93.4643 61.1426H93.3571H93.2143L93.1071 61.1783L93 61.214L92.8929 61.2497L92.75 61.2854L92.6786 61.3569L92.5714 61.4283L92.4643 61.4997L92.3929 61.6069L92.3214 61.714L92.2143 61.8212L92.1786 61.9283L92.1071 62.0354L92.0714 62.1783L92.0357 62.3211L92 62.464L91.7143 63.8569Z" fill="white"/>
<path d="M91.7143 63.8569V63.964V64.1069V64.214L91.75 64.3569L91.7857 64.464L91.8214 64.6069L91.9286 64.714L92 64.8569L92.0714 64.964L92.1786 65.0712L92.2857 65.1426L92.4286 65.2497L92.5357 65.3212L92.6786 65.3569L92.8214 65.4283L92.9286 65.464H93.1071L93.2857 65.4997H93.4643L93.6429 65.5354H93.8214H94H94.1786L94.3571 65.4997H94.5357L94.7143 65.464L94.8929 65.4283L95.1071 65.3569L95.2857 65.2854L95.4643 65.214L95.6786 65.1069L95.8571 64.964L95.5714 66.6426L95.4643 66.6783L95.3571 66.7497L95.25 66.7854L95.1786 66.8212L95.0714 66.8569L94.9643 66.8926L94.8571 66.9283H94.75L94.6071 66.964H94.4643L94.3214 66.9997H94.1786H94H93.8214H93.6071H93.3929H93.0714L92.7143 66.964L92.3929 66.9283L92.0357 66.8569L91.7143 66.7497L91.3929 66.6069L91.1071 66.464L90.8214 66.2497L90.5357 66.0354L90.3214 65.7497L90.1429 65.4283L89.9643 65.0712L89.8571 64.6783L89.7857 64.214L89.75 63.714L89.7857 63.1783L89.8214 62.964L89.8571 62.714L89.8929 62.464L90 62.1783L90.0714 61.8569L90.2143 61.5712L90.3571 61.2854L90.5357 60.9997L90.75 60.7497L91.0357 60.464L91.3214 60.2497L91.6786 60.0354L92.0714 59.8926L92.5 59.7497L92.9643 59.6783L93.5357 59.6426H93.7857L94.0714 59.6783L94.3571 59.714L94.6071 59.7854L94.8929 59.8926L95.1429 60.0354L95.3929 60.1783L95.6071 60.3569L95.8214 60.6069L96 60.8569L96.1071 61.1783L96.2143 61.5354L96.2857 61.9283V62.3926L96.2143 62.9283L96.1429 63.464L96.1071 63.8926H91.1786L91.5 62.5712H94.4286L94.4643 62.3926V62.214L94.4286 62.0712L94.3929 61.964L94.3571 61.8212L94.3214 61.714L94.25 61.6069L94.1786 61.4997L94.1071 61.4283L94 61.3569L93.8929 61.2854L93.8214 61.2497L93.7143 61.214L93.6071 61.1783L93.4643 61.1426H93.3571H93.2143L93.1071 61.1783L93 61.214L92.8929 61.2497L92.75 61.2854L92.6786 61.3569L92.5714 61.4283L92.4643 61.4997L92.3929 61.6069L92.3214 61.714L92.2143 61.8212L92.1786 61.9283L92.1071 62.0354L92.0714 62.1783L92.0357 62.3211L92 62.464L91.7143 63.8569Z" stroke="white" stroke-width="0.216" stroke-miterlimit="2.6131"/>
<path fill-rule="evenodd" clip-rule="evenodd" d="M107.822 60.1789L107.714 60.1431L107.643 60.1074L107.536 60.0717L107.429 60.0003L107.322 59.9646L107.214 59.9289L107.107 59.8931L107 59.8574L106.857 59.8217L106.714 59.786L106.607 59.7503H106.464L106.286 59.7146H106.143H105.964H105.822H105.643H105.464L105.286 59.7503L105.107 59.786L104.893 59.8217L104.714 59.9289L104.536 60.0003L104.322 60.1431L104.143 60.286L103.964 60.4646L103.822 60.6789L103.643 60.9289L103.5 61.2146L103.357 61.536L103.214 61.9289L103.107 62.3574L103.072 62.6074V62.8217L103.036 63.0717V63.3217L103.072 63.536L103.107 63.7503L103.179 63.9646L103.25 64.1431L103.357 64.3217L103.464 64.5003L103.607 64.6789L103.786 64.8217L103.964 64.9289L104.179 65.036L104.393 65.1074L104.643 65.1789L104.75 65.2146H104.857L104.964 65.2503H105.107H105.25H105.393H105.572H105.75L105.929 65.2146L106.107 65.1789L106.25 65.1431L106.429 65.1074L106.607 65.0003L106.75 64.9289L106.893 64.8217L107.036 64.7146L106.714 66.5003L106.679 66.536L106.643 66.5717L106.607 66.6074L106.536 66.6789L106.464 66.7146L106.357 66.7503L106.25 66.8217L106.143 66.8574L105.964 66.8931L105.786 66.9289L105.607 66.9646L105.357 67.0003H105.107H104.786H104.464L104.072 66.9646H103.75L103.464 66.8931L103.143 66.786L102.822 66.6431L102.536 66.4646L102.25 66.286L102 66.036L101.75 65.786L101.5 65.4646L101.322 65.1431L101.143 64.7503L101.036 64.3574L100.964 63.8931L100.929 63.4289V62.8931L101.036 62.3217L101.072 62.036L101.143 61.786L101.214 61.5003L101.286 61.2503L101.357 61.036L101.429 60.786L101.536 60.5717L101.607 60.3574L101.714 60.1431L101.822 59.9646L101.929 59.786L102.036 59.6074L102.179 59.4289L102.322 59.2503L102.429 59.1074L102.572 58.9646L102.75 58.8217L102.893 58.7146L103.072 58.6074L103.214 58.5003L103.393 58.3931L103.572 58.286L103.786 58.2146L103.964 58.1431L104.179 58.0717L104.393 58.036L104.607 57.9646L104.822 57.9289L105.072 57.8931L105.322 57.8574H105.536H105.822H106.036H106.25L106.429 57.8931L106.643 57.9289L106.822 57.9646L107 58.0003L107.179 58.036L107.357 58.0717L107.5 58.1074L107.643 58.1431L107.75 58.1789L107.857 58.2146L107.964 58.2503L108.036 58.286L108.107 58.3217H108.143L107.822 60.1789Z" fill="white"/>
<path d="M107.822 60.1789L107.714 60.1431L107.643 60.1074L107.536 60.0717L107.429 60.0003L107.322 59.9646L107.214 59.9289L107.107 59.8931L107 59.8574L106.857 59.8217L106.714 59.786L106.607 59.7503H106.464L106.286 59.7146H106.143H105.964H105.822H105.643H105.464L105.286 59.7503L105.107 59.786L104.893 59.8217L104.714 59.9289L104.536 60.0003L104.322 60.1431L104.143 60.286L103.964 60.4646L103.822 60.6789L103.643 60.9289L103.5 61.2146L103.357 61.536L103.214 61.9289L103.107 62.3574L103.072 62.6074V62.8217L103.036 63.0717V63.3217L103.072 63.536L103.107 63.7503L103.179 63.9646L103.25 64.1431L103.357 64.3217L103.464 64.5003L103.607 64.6789L103.786 64.8217L103.964 64.9289L104.179 65.036L104.393 65.1074L104.643 65.1789L104.75 65.2146H104.857L104.964 65.2503H105.107H105.25H105.393H105.572H105.75L105.929 65.2146L106.107 65.1789L106.25 65.1431L106.429 65.1074L106.607 65.0003L106.75 64.9289L106.893 64.8217L107.036 64.7146L106.714 66.5003L106.679 66.536L106.643 66.5717L106.607 66.6074L106.536 66.6789L106.464 66.7146L106.357 66.7503L106.25 66.8217L106.143 66.8574L105.964 66.8931L105.786 66.9289L105.607 66.9646L105.357 67.0003H105.107H104.786H104.464L104.072 66.9646H103.75L103.464 66.8931L103.143 66.786L102.822 66.6431L102.536 66.4646L102.25 66.286L102 66.036L101.75 65.786L101.5 65.4646L101.322 65.1431L101.143 64.7503L101.036 64.3574L100.964 63.8931L100.929 63.4289V62.8931L101.036 62.3217L101.072 62.036L101.143 61.786L101.214 61.5003L101.286 61.2503L101.357 61.036L101.429 60.786L101.536 60.5717L101.607 60.3574L101.714 60.1431L101.822 59.9646L101.929 59.786L102.036 59.6074L102.179 59.4289L102.322 59.2503L102.429 59.1074L102.572 58.9646L102.75 58.8217L102.893 58.7146L103.072 58.6074L103.214 58.5003L103.393 58.3931L103.572 58.286L103.786 58.2146L103.964 58.1431L104.179 58.0717L104.393 58.036L104.607 57.9646L104.822 57.9289L105.072 57.8931L105.322 57.8574H105.536H105.822H106.036H106.25L106.429 57.8931L106.643 57.9289L106.822 57.9646L107 58.0003L107.179 58.036L107.357 58.0717L107.5 58.1074L107.643 58.1431L107.75 58.1789L107.857 58.2146L107.964 58.2503L108.036 58.286L108.107 58.3217H108.143L107.822 60.1789Z" stroke="white" stroke-width="0.216" stroke-miterlimit="2.6131"/>
<path fill-rule="evenodd" clip-rule="evenodd" d="M124.429 67.0001H122.536L122.679 66.2501V66.2144L122.571 66.3216L122.464 66.4644L122.357 66.5716L122.214 66.643L122.107 66.7501L122 66.8216L121.857 66.893L121.75 66.9287L121.607 67.0001L121.464 67.0358L121.357 67.0716H121.214L121.071 67.1073H120.964H120.821H120.679L120.321 67.0716L120 67.0001L119.714 66.893L119.429 66.7501L119.214 66.5358L118.964 66.3216L118.786 66.0716L118.643 65.7858L118.5 65.5001L118.393 65.1787L118.321 64.8216L118.25 64.5001V64.143V63.7858L118.286 63.4644L118.357 63.1073L118.429 62.7144L118.571 62.3216L118.714 62.0001L118.857 61.6787L119.036 61.3573L119.25 61.1073L119.464 60.8573L119.679 60.643L119.929 60.4287L120.179 60.2501L120.429 60.1073L120.679 60.0001L120.964 59.893L121.214 59.8573L121.5 59.7859H121.75H121.964L122.143 59.8216L122.321 59.8573L122.5 59.893L122.643 59.9644L122.786 60.0001L122.929 60.0716L123.036 60.1787L123.143 60.2501L123.25 60.3216L123.321 60.4287L123.429 60.5001L123.464 60.6073L123.536 60.6787L123.607 60.7501L123.643 60.8573L124.107 58.1787H125.929L124.429 67.0001Z" fill="white"/>
<path d="M124.429 67.0001H122.536L122.679 66.2501V66.2144L122.571 66.3216L122.464 66.4644L122.357 66.5716L122.214 66.643L122.107 66.7501L122 66.8216L121.857 66.893L121.75 66.9287L121.607 67.0001L121.464 67.0358L121.357 67.0716H121.214L121.071 67.1073H120.964H120.821H120.679L120.321 67.0716L120 67.0001L119.714 66.893L119.429 66.7501L119.214 66.5358L118.964 66.3216L118.786 66.0716L118.643 65.7858L118.5 65.5001L118.393 65.1787L118.321 64.8216L118.25 64.5001V64.143V63.7858L118.286 63.4644L118.357 63.1073L118.429 62.7144L118.571 62.3216L118.714 62.0001L118.857 61.6787L119.036 61.3573L119.25 61.1073L119.464 60.8573L119.679 60.643L119.929 60.4287L120.179 60.2501L120.429 60.1073L120.679 60.0001L120.964 59.893L121.214 59.8573L121.5 59.7859H121.75H121.964L122.143 59.8216L122.321 59.8573L122.5 59.893L122.643 59.9644L122.786 60.0001L122.929 60.0716L123.036 60.1787L123.143 60.2501L123.25 60.3216L123.321 60.4287L123.429 60.5001L123.464 60.6073L123.536 60.6787L123.607 60.7501L123.643 60.8573L124.107 58.1787H125.929L124.429 67.0001Z" stroke="white" stroke-width="0.216" stroke-miterlimit="2.6131"/>
<path fill-rule="evenodd" clip-rule="evenodd" d="M121.357 65.393L121.536 65.3573L121.714 65.3216L121.893 65.2859L122.036 65.2144L122.179 65.143L122.322 65.0359L122.464 64.893L122.572 64.7859L122.679 64.643L122.75 64.5001L122.857 64.3573L122.929 64.1787L123 64.0359L123.036 63.8573L123.072 63.6787L123.107 63.4644L123.143 63.2859L123.179 63.1073V62.9287V62.7144L123.143 62.5359L123.107 62.393L123.072 62.2144L123.036 62.0716L122.964 61.9287L122.857 61.7859L122.786 61.6787L122.679 61.6073L122.572 61.5001L122.464 61.4644L122.322 61.4287H122.179H122L121.822 61.4644L121.679 61.5001L121.5 61.5716L121.393 61.6787L121.25 61.7859L121.143 61.893L121.036 62.0001L120.929 62.1787L120.822 62.3216L120.75 62.4644L120.643 62.643L120.607 62.8216L120.536 63.0359L120.5 63.2144L120.429 63.4287V63.7144V64.0359L120.464 64.3573L120.572 64.6787L120.679 64.9644L120.857 65.1787L121.107 65.3216L121.357 65.393Z" fill="#FCB331"/>
<path fill-rule="evenodd" clip-rule="evenodd" d="M79.929 65.4996L79.679 66.9996H77.9647L78.0361 66.7496V66.4996L78.0718 66.2853L78.1076 66.2139L78.0004 66.321L77.8933 66.4281L77.7861 66.4996L77.6433 66.6067L77.4647 66.7139L77.2861 66.7853L77.1433 66.8567L76.929 66.9282L76.7504 66.9996L76.5718 67.0353L76.3576 67.071L76.1433 67.1067H75.9647L75.7504 67.1424L75.5718 67.1067L75.3933 67.071L75.1433 67.0353L74.929 66.9639L74.7504 66.8567L74.5718 66.7496L74.429 66.6424L74.2861 66.5353L74.179 66.3924L74.1076 66.2853L74.0361 66.1424L73.9647 65.9639L73.8933 65.821L73.8576 65.6782L73.8218 65.5353V65.3567L73.7861 65.2139V65.071L73.8218 64.821L73.8576 64.571L73.929 64.321L74.0004 64.1067L74.1076 63.8924L74.2504 63.6782L74.3933 63.4996L74.5361 63.321L74.7147 63.1782L74.8933 63.0353L75.1076 62.8924L75.2861 62.7853L75.5004 62.7139L75.7504 62.6424L75.9647 62.571L76.2147 62.5353H76.2504L76.2861 62.4996H76.3576H76.4647H76.5361L76.6433 62.4639H76.7504H76.8933L77.0004 62.4282H77.1076H77.2147L77.3218 62.3924H77.429H77.5361H77.6076H77.7504H77.929H78.0718H78.2147L78.3218 62.4282H78.429H78.5004L78.5361 62.3924L78.5719 62.2496L78.6076 62.1067V61.9996V61.8567L78.5361 61.7139L78.4647 61.571L78.3576 61.4996L78.2147 61.3924L78.0718 61.321L77.8933 61.2853H77.7504H77.5361L77.3576 61.2496H77.1433L76.929 61.2853H76.679L76.4647 61.321H76.2504L76.0718 61.3567L75.8576 61.3924L75.6433 61.4281L75.5004 61.4639L75.3218 61.4996L75.179 61.5353L75.0361 61.571L74.9647 61.6067L74.8933 61.6424L75.3576 60.0353L75.5004 59.9639L75.6433 59.9282L75.8218 59.8567L75.9647 59.821L76.1433 59.7853H76.3218L76.5004 59.7496L76.679 59.7139H76.8576H77.0718H77.2504H77.4647H77.679H77.8933H78.1433H78.3933H78.5719L78.7861 59.7496L79.0004 59.821L79.2147 59.8567L79.3933 59.9639L79.6076 60.0353L79.8218 60.1781L80.0004 60.2853L80.179 60.4282L80.3218 60.6067L80.4647 60.7853L80.5718 60.9996L80.6076 61.2139L80.679 61.4281V61.6782L80.6076 61.9639L79.929 65.4996Z" fill="white"/>
<path d="M79.929 65.4996L79.679 66.9996H77.9647L78.0361 66.7496V66.4996L78.0718 66.2853L78.1076 66.2139L78.0004 66.321L77.8933 66.4281L77.7861 66.4996L77.6433 66.6067L77.4647 66.7139L77.2861 66.7853L77.1433 66.8567L76.929 66.9282L76.7504 66.9996L76.5718 67.0353L76.3576 67.071L76.1433 67.1067H75.9647L75.7504 67.1424L75.5718 67.1067L75.3933 67.071L75.1433 67.0353L74.929 66.9639L74.7504 66.8567L74.5718 66.7496L74.429 66.6424L74.2861 66.5353L74.179 66.3924L74.1076 66.2853L74.0361 66.1424L73.9647 65.9639L73.8933 65.821L73.8576 65.6782L73.8218 65.5353V65.3567L73.7861 65.2139V65.071L73.8218 64.821L73.8576 64.571L73.929 64.321L74.0004 64.1067L74.1076 63.8924L74.2504 63.6782L74.3933 63.4996L74.5361 63.321L74.7147 63.1782L74.8933 63.0353L75.1076 62.8924L75.2861 62.7853L75.5004 62.7139L75.7504 62.6424L75.9647 62.571L76.2147 62.5353H76.2504L76.2861 62.4996H76.3576H76.4647H76.5361L76.6433 62.4639H76.7504H76.8933L77.0004 62.4282H77.1076H77.2147L77.3218 62.3924H77.429H77.5361H77.6076H77.7504H77.929H78.0718H78.2147L78.3218 62.4282H78.429H78.5004L78.5361 62.3924L78.5719 62.2496L78.6076 62.1067V61.9996V61.8567L78.5361 61.7139L78.4647 61.571L78.3576 61.4996L78.2147 61.3924L78.0718 61.321L77.8933 61.2853H77.7504H77.5361L77.3576 61.2496H77.1433L76.929 61.2853H76.679L76.4647 61.321H76.2504L76.0718 61.3567L75.8576 61.3924L75.6433 61.4281L75.5004 61.4639L75.3218 61.4996L75.179 61.5353L75.0361 61.571L74.9647 61.6067L74.8933 61.6424L75.3576 60.0353L75.5004 59.9639L75.6433 59.9282L75.8218 59.8567L75.9647 59.821L76.1433 59.7853H76.3218L76.5004 59.7496L76.679 59.7139H76.8576H77.0718H77.2504H77.4647H77.679H77.8933H78.1433H78.3933H78.5719L78.7861 59.7496L79.0004 59.821L79.2147 59.8567L79.3933 59.9639L79.6076 60.0353L79.8219 60.1781L80.0004 60.2853L80.179 60.4282L80.3218 60.6067L80.4647 60.7853L80.5718 60.9996L80.6076 61.2139L80.679 61.4281V61.6782L80.6076 61.9639L79.929 65.4996Z" stroke="white" stroke-width="0.216" stroke-miterlimit="2.6131"/>
<path fill-rule="evenodd" clip-rule="evenodd" d="M78.3216 63.7497V63.714L78.2859 63.6783H78.2502L78.1788 63.6426H78.1074H78.0002H77.8931H77.8216H77.7145H77.5716L77.4645 63.6783H77.3574H77.2859L77.1788 63.714L77.1074 63.7497H77.0359L76.9645 63.7854H76.9288L76.8574 63.8211L76.7859 63.8569L76.6788 63.8926L76.6074 63.9283L76.5002 63.9997L76.4288 64.0354L76.3216 64.1069L76.2145 64.1783L76.1431 64.2497L76.0716 64.3211L76.0002 64.4283L75.9645 64.5354L75.9288 64.6426L75.8931 64.7497V64.964L75.9288 65.1426L76.0002 65.2854L76.0716 65.3926L76.1788 65.464L76.2859 65.4997H76.3931H76.5002H76.7145H76.8931L77.0716 65.464L77.2145 65.4283L77.3574 65.3569L77.5002 65.3212L77.6074 65.2497L77.7145 65.1783L77.7859 65.1069L77.8931 65.0354L77.9288 64.964L78.0002 64.8926L78.0359 64.7854L78.0716 64.714L78.1074 64.6426L78.1431 64.5712L78.1788 64.3569L78.2502 64.1426L78.2859 63.9283L78.3216 63.7497Z" fill="#ED1B2E"/>
<path fill-rule="evenodd" clip-rule="evenodd" d="M65.7501 67.0007H63.9287L65.4287 58.1436H68.643L68.9287 63.4293L71.143 58.1436H74.4644L72.9287 67.0007H71.0716L72.2501 60.3935H72.1787L69.4287 67.0007H67.3573L67.3216 66.7507L67.2859 66.0007L67.2144 64.965L67.143 63.7507L67.1073 62.5364L67.0359 61.5007L67.0001 60.715L66.9644 60.3935H66.893H66.8573L65.7501 67.0007Z" fill="white"/>
<path d="M65.7501 67.0007H63.9287L65.4287 58.1436H68.643L68.9287 63.4293L71.143 58.1436H74.4644L72.9287 67.0007H71.0716L72.2501 60.3935H72.1787L69.4287 67.0007H67.3573L67.3216 66.7507L67.2859 66.0007L67.2144 64.965L67.143 63.7507L67.1073 62.5364L67.0359 61.5007L67.0001 60.715L66.9644 60.3935H66.893H66.8573L65.7501 67.0007Z" stroke="white" stroke-width="0.216" stroke-miterlimit="2.6131"/>
<path fill-rule="evenodd" clip-rule="evenodd" d="M113.428 65.4996L113.143 66.9996H111.464V66.7496V66.4996V66.321V66.2139L111.393 66.321L111.286 66.4281L111.178 66.5353L111.036 66.6067L110.893 66.7139L110.714 66.7853L110.571 66.8567L110.393 66.9282L110.214 66.9996L110.036 67.0353L109.821 67.071L109.643 67.1067H109.464L109.25 67.1424L109.071 67.1067L108.893 67.071L108.643 67.0353L108.428 66.9639L108.25 66.8567L108.071 66.7496L107.928 66.6424L107.786 66.5353L107.678 66.3924L107.607 66.2853L107.5 66.1424L107.464 65.9639L107.393 65.821L107.357 65.6782L107.321 65.5353V65.3567V65.2139V65.071V64.821L107.357 64.571L107.428 64.321L107.5 64.1067L107.607 63.8924L107.75 63.6782L107.893 63.4996L108.036 63.321L108.214 63.1782L108.393 63.0353L108.571 62.8924L108.786 62.7853L109 62.7139L109.214 62.6424L109.464 62.571L109.678 62.5353H109.714L109.786 62.4996H109.857H109.928H110.036L110.107 62.4639H110.25H110.357L110.464 62.4282H110.571H110.714L110.821 62.3924H110.893H111H111.071H111.214H111.393H111.536H111.714L111.821 62.4282H111.928H112H112.036V62.3924L112.071 62.2496V62.1067V61.9996V61.8567L112 61.7139L111.928 61.571L111.821 61.4996L111.714 61.3924L111.571 61.321L111.393 61.2853H111.25H111.071L110.857 61.2496H110.643L110.428 61.2853H110.214L110 61.321H109.786L109.571 61.3567L109.357 61.3924L109.178 61.4281L109 61.4639L108.821 61.4996L108.678 61.5353L108.571 61.571L108.464 61.6067L108.393 61.6424L108.857 60.0353L109 59.9639L109.178 59.9282L109.321 59.8567L109.5 59.821L109.643 59.7853H109.821L110 59.7496L110.178 59.7139H110.357H110.571H110.75H110.964H111.178H111.393H111.607H111.857H112.036L112.25 59.7496L112.464 59.821L112.678 59.8567L112.893 59.9639L113.071 60.0353L113.286 60.1781L113.464 60.2853L113.643 60.4282L113.786 60.6067L113.928 60.7853L114.036 60.9996L114.107 61.2139L114.143 61.4281V61.6782L114.107 61.9639L113.428 65.4996Z" fill="white"/>
<path fill-rule="evenodd" clip-rule="evenodd" d="M113.143 67.0714L113.179 67.0357L113.465 65.5357L113.393 65.5L113.107 67L113.143 66.9643V67.0714H113.179V67.0357L113.143 67.0714Z" fill="white"/>
<path fill-rule="evenodd" clip-rule="evenodd" d="M111.394 67.0006L111.465 67.072H113.144V66.9648H111.465L111.501 67.0006H111.394V67.072H111.465L111.394 67.0006Z" fill="white"/>
<path fill-rule="evenodd" clip-rule="evenodd" d="M111.501 66.2505L111.465 66.2148L111.429 66.322V66.5006V66.7506L111.394 67.0006H111.501V66.7506V66.5006V66.322V66.2505L111.465 66.2148L111.501 66.2505Z" fill="white"/>
<path fill-rule="evenodd" clip-rule="evenodd" d="M108.894 67.1077L109.072 67.1434L109.251 67.1791H109.465L109.644 67.1434L109.858 67.1077L110.036 67.072L110.215 67.0363L110.394 66.9648L110.572 66.9291L110.751 66.822L110.929 66.7506L111.072 66.6434L111.215 66.572L111.322 66.4648L111.429 66.3577L111.501 66.2505L111.465 66.2148L111.358 66.322L111.251 66.3934L111.144 66.5006L111.001 66.572L110.858 66.6791L110.715 66.7506L110.536 66.822L110.394 66.8934L110.215 66.9648L110.001 67.0006L109.822 67.0363L109.644 67.072H109.465H109.251H109.072L108.894 67.0363V67.1077Z" fill="white"/>
<path fill-rule="evenodd" clip-rule="evenodd" d="M107.25 65.0713V65.2141L107.286 65.357V65.5356L107.321 65.6784L107.357 65.857L107.429 65.9999L107.464 66.1427L107.571 66.2856L107.643 66.4284L107.75 66.5713L107.893 66.6784L108.071 66.7856L108.214 66.8927L108.429 66.9999L108.643 67.0713L108.893 67.107V67.0356L108.679 66.9641L108.464 66.9284L108.286 66.8213L108.107 66.7141L107.964 66.607L107.821 66.4999L107.714 66.3927L107.643 66.2499L107.571 66.107L107.5 65.9641L107.429 65.8213L107.393 65.6784V65.5356L107.357 65.357V65.2141V65.0713H107.25Z" fill="white"/>
<path fill-rule="evenodd" clip-rule="evenodd" d="M109.679 62.5L109.429 62.5357L109.214 62.5714L109 62.6786L108.786 62.75L108.571 62.8571L108.357 63L108.179 63.1429L108 63.3214L107.857 63.4643L107.714 63.6786L107.571 63.8571L107.464 64.0714L107.393 64.3214L107.321 64.5714L107.286 64.8214L107.25 65.0714H107.357V64.8214L107.393 64.5714L107.464 64.3571L107.536 64.1071L107.643 63.8929L107.786 63.7143L107.929 63.5357L108.071 63.3572L108.25 63.2143L108.429 63.0714L108.607 62.9643L108.821 62.8214L109.036 62.75L109.25 62.6786L109.464 62.6071L109.679 62.5714V62.5Z" fill="white"/>
<path fill-rule="evenodd" clip-rule="evenodd" d="M111.072 62.3574H111H110.893H110.822H110.714L110.572 62.3931H110.464H110.357L110.25 62.4289H110.107L110.036 62.4646H109.929H109.857H109.786H109.714L109.679 62.5003V62.5717H109.75H109.786L109.857 62.536H109.929H110.036L110.107 62.5003H110.25H110.357L110.464 62.4646H110.572H110.714H110.822L110.893 62.4289H111H111.072V62.3574Z" fill="white"/>
<path fill-rule="evenodd" clip-rule="evenodd" d="M111.964 62.4289L112.036 62.3931H112H111.928L111.821 62.3574H111.714H111.536H111.393H111.214H111.071V62.4289H111.214H111.393L111.536 62.4646H111.714H111.821H111.928H112H112.036L112.071 62.4289L112.036 62.4646H112.071V62.4289H111.964Z" fill="white"/>
<path fill-rule="evenodd" clip-rule="evenodd" d="M112.036 62V62.1071L112.001 62.25V62.3571L111.965 62.4286H112.072V62.3929L112.108 62.25V62.1071L112.143 62H112.036Z" fill="white"/>
<path fill-rule="evenodd" clip-rule="evenodd" d="M111.25 61.3214H111.393L111.536 61.3929L111.679 61.4286L111.786 61.5L111.893 61.6071L111.964 61.7143L112.036 61.8571V62H112.143L112.107 61.8214L112.036 61.6786L111.964 61.5714L111.857 61.4643L111.714 61.3571L111.571 61.2857L111.429 61.25H111.25V61.3214Z" fill="white"/>
<path fill-rule="evenodd" clip-rule="evenodd" d="M108.357 61.6434L108.429 61.6791L108.5 61.6434L108.572 61.6077L108.679 61.572L108.822 61.5363L109 61.5006L109.179 61.4648L109.357 61.4291L109.572 61.3934L109.786 61.3577H110L110.215 61.322H110.429H110.643H110.857H111.072H111.25V61.2505H111.072L110.857 61.2148H110.643L110.429 61.2505H110.215H110L109.786 61.2863L109.572 61.322L109.357 61.3577L109.143 61.3934H109L108.822 61.4291L108.679 61.5006L108.536 61.5363L108.429 61.572L108.357 61.6077L108.429 61.6434H108.357Z" fill="white"/>
<path fill-rule="evenodd" clip-rule="evenodd" d="M108.857 60L108.822 60.0357L108.357 61.6429H108.429L108.893 60.0357V60.0714L108.857 60H108.822V60.0357L108.857 60Z" fill="white"/>
<path fill-rule="evenodd" clip-rule="evenodd" d="M111.856 59.6783H111.606L111.392 59.6426H111.178H110.964H110.749L110.571 59.6783H110.356H110.178L109.999 59.714H109.821L109.642 59.7497L109.464 59.7854L109.321 59.8211L109.142 59.8569L108.999 59.9283L108.856 59.9997L108.892 60.0712L109.035 59.9997L109.178 59.964L109.321 59.8926L109.499 59.8569L109.642 59.8211H109.821L109.999 59.7854H110.178L110.356 59.7497H110.571H110.749H110.964H111.178H111.392H111.606H111.856V59.6783Z" fill="white"/>
<path fill-rule="evenodd" clip-rule="evenodd" d="M114.179 61.9644L114.215 61.6787V61.4287L114.143 61.1787L114.072 60.9644L113.965 60.7501L113.822 60.5716L113.679 60.393L113.5 60.2501L113.322 60.143L113.107 60.0001L112.893 59.9287L112.679 59.8216L112.465 59.7859L112.25 59.7144L112.036 59.6787H111.857V59.7501L112.036 59.7859H112.25L112.429 59.8573L112.643 59.9287L112.857 60.0001L113.072 60.0716L113.286 60.1787L113.465 60.3216L113.607 60.4644L113.75 60.643L113.893 60.7859L114 61.0001L114.072 61.2144L114.107 61.4287V61.6787L114.072 61.9644H114.179Z" fill="white"/>
<path fill-rule="evenodd" clip-rule="evenodd" d="M113.464 65.5363L114.179 61.9648H114.072L113.393 65.5006L113.464 65.5363Z" fill="white"/>
<path fill-rule="evenodd" clip-rule="evenodd" d="M111.785 63.7497V63.714L111.75 63.6783H111.714L111.643 63.6426H111.571H111.464H111.357H111.25H111.143L111.035 63.6783H110.928H110.857L110.75 63.714H110.643L110.571 63.7497H110.5H110.464L110.393 63.7854H110.321L110.25 63.8211L110.178 63.8569L110.071 63.9283L110 63.964L109.893 64.0354L109.821 64.0712L109.714 64.1426L109.643 64.214L109.571 64.3211L109.535 64.3926L109.464 64.4997L109.428 64.6069L109.393 64.7497V64.964L109.428 65.1426L109.5 65.2854L109.571 65.3926L109.678 65.464L109.785 65.4997H109.893H110H110.214H110.393L110.571 65.464L110.75 65.3926L110.893 65.3569L111 65.2854L111.143 65.214L111.25 65.1426L111.321 65.0712L111.428 64.9997L111.5 64.8926L111.571 64.8211L111.607 64.7497L111.643 64.6426L111.678 64.5712V64.4997L111.714 64.3211L111.75 64.1069L111.785 63.9283V63.7497Z" fill="#FCB331"/>
<path fill-rule="evenodd" clip-rule="evenodd" d="M125.679 66.1073V65.9287L125.75 65.7501L125.857 65.6073L125.964 65.4644L126.107 65.3216L126.25 65.2501L126.429 65.2144L126.607 65.1787L126.822 65.2144L127 65.2501L127.143 65.3216L127.286 65.4644L127.393 65.6073L127.5 65.7501L127.572 65.9287V66.1073H127.357V65.9644L127.322 65.8216L127.25 65.6787L127.179 65.5716L127.072 65.4644L126.929 65.393L126.786 65.3573H126.607H126.464L126.322 65.393L126.179 65.4644L126.072 65.5716L126 65.6787L125.929 65.8216L125.893 65.9644L125.857 66.1073H125.679Z" fill="white"/>
<path fill-rule="evenodd" clip-rule="evenodd" d="M126.286 66.1073V65.6787H126.643H126.75L126.822 65.7144H126.858L126.929 65.7501L126.965 65.7858V65.8216L127 65.893V65.9287V66.0001L126.965 66.0359V66.0716L126.929 66.1073H126.643L126.679 66.0716H126.715H126.786L126.822 66.0359L126.858 66.0001V65.9644V65.9287V65.893L126.822 65.8573H126.786L126.75 65.8216H126.715H126.643H126.465V66.1073H126.286Z" fill="white"/>
<path fill-rule="evenodd" clip-rule="evenodd" d="M125.679 66.1074V66.1431V66.3217L125.75 66.5003L125.857 66.6788L125.964 66.8217L126.107 66.9289L126.25 67.0003L126.429 67.0717H126.607H126.822L127 67.0003L127.143 66.9289L127.286 66.8217L127.393 66.6788L127.5 66.5003L127.572 66.3217V66.1431V66.1074H127.357V66.1431V66.286L127.322 66.4288L127.25 66.5717L127.179 66.6788L127.072 66.786L126.929 66.8574L126.786 66.8931L126.607 66.9289L126.464 66.8931L126.322 66.8574L126.179 66.786L126.072 66.6788L126 66.5717L125.929 66.4288L125.893 66.286L125.857 66.1431V66.1074H125.679Z" fill="white"/>
<path fill-rule="evenodd" clip-rule="evenodd" d="M126.286 66.1074V66.5003H126.465V66.1789H126.608L126.822 66.5003H126.965L126.75 66.1789H126.822L126.858 66.1431H126.893L126.929 66.1074H126.643H126.608H126.465H126.286Z" fill="white"/>
<path d="M125.679 66.143L125.714 65.9644L125.786 65.7859L125.893 65.6073L126 65.4644L126.143 65.3573L126.322 65.2859L126.5 65.2144L126.679 65.1787L126.857 65.2144L127.036 65.2859L127.214 65.3573L127.357 65.4644L127.464 65.6073L127.572 65.7859L127.643 65.9644L127.679 66.143L127.643 66.3216L127.572 66.5001L127.464 66.6787L127.357 66.8216L127.214 66.9287L127.036 67.0001L126.857 67.0716L126.679 67.1073L126.5 67.0716L126.322 67.0001L126.143 66.9287L126 66.8216L125.893 66.6787L125.786 66.5001L125.714 66.3216L125.679 66.143ZM126.464 66.5001H126.286V65.6787H126.643H126.714H126.786L126.857 65.7144L126.893 65.7501L126.929 65.7859L126.964 65.8216V65.8573V65.893V65.9644V66.0001L126.929 66.0359L126.893 66.0716L126.857 66.1073H126.822H126.786H126.75L126.964 66.4287H126.822L126.607 66.1073H126.429V66.5001H126.464ZM126.607 66.1073H126.679H126.714H126.75H126.786L126.822 66.0716V66.0359V66.0001V65.9644V65.9287V65.893H126.786H126.75H126.714H126.679H126.714H126.679H126.464V66.1787H126.607V66.1073ZM126.607 66.9287H126.75L126.893 66.893L127.036 66.8216L127.143 66.7144L127.214 66.6073L127.286 66.4644L127.322 66.3216V66.143V65.9644L127.286 65.8216L127.214 65.6787L127.143 65.5716L127.036 65.4644L126.893 65.393L126.75 65.3573H126.607H126.464L126.322 65.393L126.179 65.4644L126.072 65.5716L126 65.6787L125.929 65.8216L125.893 65.9644V66.143V66.3216L125.929 66.4644L126 66.6073L126.072 66.7144L126.179 66.8216L126.322 66.893L126.464 66.9287H126.607Z" stroke="white" stroke-width="0.216" stroke-miterlimit="2.6131"/>
<path fill-rule="evenodd" clip-rule="evenodd" d="M113.929 66.9996H115.822L116.5 63.1782L116.536 63.0353L116.572 62.8924L116.607 62.7139L116.679 62.571L116.75 62.4282L116.822 62.2853L116.893 62.1424L117 62.0353L117.143 61.9282L117.286 61.821L117.429 61.7139L117.607 61.6067L117.786 61.571L118 61.4996L118.25 61.4639H118.5H118.607H118.643H118.679L118.964 59.7139H118.786L118.607 59.7496L118.429 59.7853L118.286 59.821L118.143 59.8924L118 59.9639L117.857 60.0353L117.714 60.1067L117.607 60.2139L117.5 60.2853L117.393 60.3924L117.286 60.4996L117.179 60.6424L117.072 60.7496L116.964 60.8924L116.893 60.9996L117.072 59.7853H115.179L113.929 66.9996Z" fill="white"/>
<path d="M113.929 66.9996H115.822L116.5 63.1782L116.536 63.0353L116.572 62.8924L116.607 62.7139L116.679 62.571L116.75 62.4282L116.822 62.2853L116.893 62.1424L117 62.0353L117.143 61.9282L117.286 61.821L117.429 61.7139L117.607 61.6067L117.786 61.571L118 61.4996L118.25 61.4639H118.5H118.607H118.643H118.679L118.964 59.7139H118.786L118.607 59.7496L118.429 59.7853L118.286 59.821L118.143 59.8924L118 59.9639L117.857 60.0353L117.714 60.1067L117.607 60.2139L117.5 60.2853L117.393 60.3924L117.286 60.4996L117.179 60.6424L117.072 60.7496L116.964 60.8924L116.893 60.9996L117.072 59.7853H115.179L113.929 66.9996Z" stroke="white" stroke-width="0.216" stroke-miterlimit="2.6131"/>
<path fill-rule="evenodd" clip-rule="evenodd" d="M96.0713 66.9996H97.9641H97.9999L98.6427 63.1782L98.6784 63.0353L98.7141 62.8924L98.7499 62.7496L98.7856 62.6067L98.857 62.4639L98.8927 62.3567L98.9999 62.2139L99.0713 62.1067L99.1784 61.9996L99.3213 61.8924L99.4641 61.821L99.607 61.7496L99.8213 61.6782L100.036 61.6424L100.25 61.6067L100.5 61.571H100.536L100.571 61.6067H100.607H100.643H100.678H100.714L100.75 61.4996L100.786 61.3924V61.2496L100.857 61.071L100.893 60.8924L100.964 60.6782L101.036 60.4996L101.071 60.3567L101.143 60.2496L101.214 60.1067L101.286 59.9996L101.321 59.8924L101.393 59.821L101.428 59.7853V59.7496H101.393H101.357L101.321 59.7139H101.286H101.214H101.178H101.107H100.928L100.714 59.7496L100.536 59.7853L100.393 59.821L100.214 59.8924L100.071 59.9282L99.9641 59.9996L99.8213 60.1067L99.7141 60.1781L99.607 60.2853L99.4999 60.3924L99.4284 60.4996L99.3213 60.6067L99.2141 60.7496L99.107 60.8924L98.9999 60.9996L99.2499 59.7853H97.3213L96.0713 66.9996Z" fill="white"/>
<path d="M96.0713 66.9996H97.9641H97.9999L98.6427 63.1782L98.6784 63.0353L98.7141 62.8924L98.7499 62.7496L98.7856 62.6067L98.857 62.4639L98.8927 62.3567L98.9999 62.2139L99.0713 62.1067L99.1784 61.9996L99.3213 61.8924L99.4641 61.821L99.607 61.7496L99.8213 61.6782L100.036 61.6424L100.25 61.6067L100.5 61.571H100.536L100.571 61.6067H100.607H100.643H100.678H100.714L100.75 61.4996L100.786 61.3924V61.2496L100.857 61.071L100.893 60.8924L100.964 60.6782L101.036 60.4996L101.071 60.3567L101.143 60.2496L101.214 60.1067L101.286 59.9996L101.321 59.8924L101.393 59.821L101.428 59.7853V59.7496H101.393H101.357L101.321 59.7139H101.286H101.214H101.178H101.107H100.928L100.714 59.7496L100.536 59.7853L100.393 59.821L100.214 59.8924L100.071 59.9282L99.9641 59.9996L99.8213 60.1067L99.7141 60.1781L99.607 60.2853L99.4999 60.3924L99.4284 60.4996L99.3213 60.6067L99.2141 60.7496L99.107 60.8924L98.9999 60.9996L99.2499 59.7853H97.3213L96.0713 66.9996Z" stroke="white" stroke-width="0.216" stroke-miterlimit="2.6131"/>
<path fill-rule="evenodd" clip-rule="evenodd" d="M125.679 74.1064V74.0707L125.75 73.8922L125.857 73.7493L125.964 73.6064L126.107 73.4993L126.25 73.4279L126.429 73.3922L126.607 73.3564L126.822 73.3922L127 73.4279L127.143 73.4993L127.286 73.6064L127.393 73.7493L127.5 73.8922L127.572 74.0707V74.1064H127.357L127.322 73.9636L127.25 73.8564L127.179 73.7136L127.072 73.6422L126.929 73.5707L126.786 73.4993H126.607H126.464L126.322 73.5707L126.179 73.6422L126.072 73.7136L126 73.8564L125.929 73.9636L125.893 74.1064H125.679Z" fill="#FCB331"/>
<path fill-rule="evenodd" clip-rule="evenodd" d="M126.286 74.1074V73.8574H126.643H126.75L126.822 73.8931H126.858L126.929 73.9288L126.965 73.9646V74.0003L127 74.036V74.1074H126.858V74.0717V74.036L126.822 74.0003H126.786L126.75 73.9646H126.715H126.643H126.465V74.1074H126.286Z" fill="#FCB331"/>
<path fill-rule="evenodd" clip-rule="evenodd" d="M125.679 74.2503V74.1074H125.893L125.857 74.2503H125.679Z" fill="#FCB331"/>
<path fill-rule="evenodd" clip-rule="evenodd" d="M126.286 74.2503V74.1074H126.465V74.2503H126.608L126.679 74.2146H126.715H126.786H126.822V74.1789L126.858 74.1431V74.1074H127V74.1431L126.965 74.2146L126.929 74.2503H126.286Z" fill="#FCB331"/>
<path fill-rule="evenodd" clip-rule="evenodd" d="M127.357 74.2503V74.1074H127.572V74.2503H127.357Z" fill="#FCB331"/>
<path fill-rule="evenodd" clip-rule="evenodd" d="M125.679 74.25V74.2857V74.4643L125.75 74.6428L125.857 74.8214L125.964 74.9643L126.107 75.0714L126.25 75.1429L126.429 75.2143H126.607H126.822L127 75.1429L127.143 75.0714L127.286 74.9643L127.393 74.8214L127.5 74.6428L127.572 74.4643V74.2857V74.25H127.357V74.2857V74.4286L127.322 74.5714L127.25 74.7143L127.179 74.8214L127.072 74.9286L126.929 75L126.786 75.0357L126.607 75.0714L126.464 75.0357L126.322 75L126.179 74.9286L126.072 74.8214L126 74.7143L125.929 74.5714L125.893 74.4286L125.857 74.2857V74.25H125.679Z" fill="#FCB331"/>
<path fill-rule="evenodd" clip-rule="evenodd" d="M126.286 74.25V74.6428H126.465V74.3214H126.608L126.822 74.6428H126.965L126.75 74.3214H126.822L126.858 74.2857H126.893L126.929 74.25H126.286Z" fill="#FCB331"/>
<defs>
<filter id="filter0_d" x="0" y="0" width="190" height="130" filterUnits="userSpaceOnUse" color-interpolation-filters="sRGB">
<feFlood flood-opacity="0" result="BackgroundImageFix"/>
<feColorMatrix in="SourceAlpha" type="matrix" values="0 0 0 0 0 0 0 0 0 0 0 0 0 0 0 0 0 0 127 0"/>
<feOffset dy="3"/>
<feGaussianBlur stdDeviation="17.5"/>
<feColorMatrix type="matrix" values="0 0 0 0 0 0 0 0 0 0 0 0 0 0 0 0 0 0 0.1 0"/>
<feBlend mode="normal" in2="BackgroundImageFix" result="effect1_dropShadow"/>
<feBlend mode="normal" in="SourceGraphic" in2="effect1_dropShadow" result="shape"/>
</filter>
</defs>
</svg>
