<svg width="190" height="130" viewBox="0 0 190 130" fill="none" xmlns="http://www.w3.org/2000/svg">
<g filter="url(#filter0_d)">
<rect x="35" y="32" width="120" height="60" rx="3" fill="white"/>
</g>
<path d="M110.928 44.3818C102.657 44.3818 96.8463 49.0156 96.795 55.6414C96.7426 60.5499 100.95 63.2869 104.115 64.9183C107.38 66.586 108.47 67.6578 108.46 69.1498C108.427 71.4368 105.847 72.4788 103.45 72.4788C100.107 72.4788 98.3251 71.9644 95.5861 70.6951L94.5001 70.1512L93.3303 77.7877C95.2859 78.7381 98.8972 79.5615 102.652 79.6045C111.429 79.6045 117.14 75.024 117.208 67.9513C117.243 64.0582 115.009 61.1117 110.18 58.679C107.265 57.0974 105.463 56.0486 105.49 54.4459C105.492 53.0298 107.002 51.5122 110.281 51.5122C113.019 51.4636 114.988 52.1258 116.538 52.8234L117.284 53.2155L118.422 45.8179C116.77 45.1302 114.162 44.382 110.928 44.382L110.928 44.3818ZM84.9615 44.977L79.7298 79.1H88.0885L93.3232 44.9766H84.9626L84.9615 44.977ZM72.7157 45.0101L64.5307 68.266L63.6581 63.5405C61.6198 57.746 57.2071 51.6678 52.0684 49.2044L59.5556 79.0674L68.4067 79.063L81.569 45.0104H72.7157V45.0101ZM133.408 45.0123C131.405 45.0123 129.905 45.6138 129.021 47.8445L116.608 79.1113H125.39C125.39 79.1113 126.826 74.9026 127.151 73.9812C128.109 73.9812 136.639 74.0006 137.856 74.0006C138.115 75.1905 138.874 79.1109 138.874 79.1109H146.639L139.868 45.0123H133.408L133.408 45.0123ZM133.999 54.2119L134.556 57.1536C134.556 57.1536 136.163 65.2953 136.498 67.0005H129.557C130.251 65.0425 132.888 57.4625 132.888 57.4625C132.836 57.5552 133.574 55.4888 133.999 54.2117L133.999 54.2119Z" fill="#0023A0"/>
<path d="M56.9396 44.9923H43.4536L43.375 45.5795C53.8602 48.4051 60.7777 55.344 63.6579 63.5495L60.7271 47.8664C60.2234 45.7096 58.7559 45.0684 56.9396 44.9922" fill="#FFAB00"/>
<defs>
<filter id="filter0_d" x="0" y="0" width="190" height="130" filterUnits="userSpaceOnUse" color-interpolation-filters="sRGB">
<feFlood flood-opacity="0" result="BackgroundImageFix"/>
<feColorMatrix in="SourceAlpha" type="matrix" values="0 0 0 0 0 0 0 0 0 0 0 0 0 0 0 0 0 0 127 0"/>
<feOffset dy="3"/>
<feGaussianBlur stdDeviation="17.5"/>
<feColorMatrix type="matrix" values="0 0 0 0 0 0 0 0 0 0 0 0 0 0 0 0 0 0 0.1 0"/>
<feBlend mode="normal" in2="BackgroundImageFix" result="effect1_dropShadow"/>
<feBlend mode="normal" in="SourceGraphic" in2="effect1_dropShadow" result="shape"/>
</filter>
</defs>
</svg>
